/* XPM */
static char * gems1_xpm[] = {
"16 16 179 2",
"  	c None",
". 	c #15C6DE",
"+ 	c #14C4DD",
"@ 	c #13C2DD",
"# 	c #12C0DC",
"$ 	c #10BEDC",
"% 	c #0FBBDB",
"& 	c #18ACDB",
"* 	c #2599DC",
"= 	c #16A8DA",
"- 	c #0BB3D9",
"; 	c #0AB1D9",
"> 	c #09AFD8",
", 	c #08ADD8",
"' 	c #06ABD7",
") 	c #05A9D7",
"! 	c #04A7D6",
"~ 	c #16C8DE",
"{ 	c #2D96DD",
"] 	c #4C6CDE",
"^ 	c #4179DD",
"/ 	c #5062DE",
"( 	c #0CB5DA",
"_ 	c #07ABD7",
": 	c #17CADF",
"< 	c #5266DF",
"[ 	c #16B6DC",
"} 	c #3787DD",
"| 	c #239FDC",
"1 	c #0DB8DA",
"2 	c #18CDE0",
"3 	c #5D59E0",
"4 	c #3392DE",
"5 	c #5F54E0",
"6 	c #2B97DD",
"7 	c #0EBADB",
"8 	c #0CB6DA",
"9 	c #0BB4D9",
"0 	c #1ACFE0",
"a 	c #21BCDF",
"b 	c #2CA7DF",
"c 	c #21B4DE",
"d 	c #3693DE",
"e 	c #5169DF",
"f 	c #427CDE",
"g 	c #25A2DD",
"h 	c #18B0DC",
"i 	c #0FBADB",
"j 	c #11B0DA",
"k 	c #1F9CDB",
"l 	c #1E9ADA",
"m 	c #0BAED8",
"n 	c #1BD1E1",
"o 	c #34A3E0",
"p 	c #5074E0",
"q 	c #4683E0",
"r 	c #5B5FE0",
"s 	c #6550E0",
"t 	c #467DDF",
"u 	c #6153E0",
"v 	c #4D6FDF",
"w 	c #4971DE",
"x 	c #3D80DE",
"y 	c #6D3FE0",
"z 	c #476EDE",
"A 	c #3B7CDD",
"B 	c #6B40E0",
"C 	c #0FACD9",
"D 	c #1CD3E1",
"E 	c #566EE1",
"F 	c #1FC6E0",
"G 	c #3D93E0",
"H 	c #2BADE0",
"I 	c #664FE1",
"J 	c #6352E0",
"K 	c #1ABCDE",
"L 	c #5367DF",
"M 	c #654CE0",
"N 	c #5265DF",
"O 	c #3B81DE",
"P 	c #3583DC",
"Q 	c #1DD5E2",
"R 	c #605FE1",
"S 	c #399EE1",
"T 	c #6259E1",
"U 	c #4D79E0",
"V 	c #6551E1",
"W 	c #477FE0",
"X 	c #644FE0",
"Y 	c #3C88DF",
"Z 	c #4B70DF",
"` 	c #5067DF",
" .	c #644BE0",
"..	c #2E92DD",
"+.	c #4F64DE",
"@.	c #0DB6DA",
"#.	c #1ED8E2",
"$.	c #25C8E2",
"%.	c #3E9AE1",
"&.	c #33AAE1",
"*.	c #4090E0",
"=.	c #31A7E0",
"-.	c #3998E0",
";.	c #3A92DF",
">.	c #2FA2DF",
",.	c #1ABDDE",
"'.	c #2BA0DE",
").	c #25A7DD",
"!.	c #2B9BDD",
"~.	c #338EDD",
"{.	c #12B7DB",
"].	c #0EB8DA",
"^.	c #20DAE3",
"/.	c #1DD6E2",
"(.	c #23C9E1",
"_.	c #7935E1",
":.	c #23C0E0",
"<.	c #6E45E1",
"[.	c #4585E0",
"}.	c #17C9DF",
"|.	c #16C7DE",
"1.	c #14C5DE",
"2.	c #0DBDCF",
"3.	c #10BFD8",
"4.	c #11BFDC",
"5.	c #10BDDC",
"6.	c #21DCE3",
"7.	c #23CDE2",
"8.	c #7142E1",
"9.	c #6D48E1",
"0.	c #615CE1",
"a.	c #20C3E0",
"b.	c #18CBDF",
"c.	c #5CE4EB",
"d.	c #98FEFE",
"e.	c #ACF8FB",
"f.	c #22DEE4",
"g.	c #4496E2",
"h.	c #5770E2",
"i.	c #4195E1",
"j.	c #6851E1",
"k.	c #21C5E0",
"l.	c #19CEE0",
"m.	c #18CCDF",
"n.	c #40D7E8",
"o.	c #12C1DD",
"p.	c #23E1E5",
"q.	c #22DFE4",
"r.	c #2FBFE3",
"s.	c #31B8E2",
"t.	c #27C6E2",
"u.	c #34ACE1",
"v.	c #1ECEE1",
"w.	c #1AD0E0",
"x.	c #356BB4",
"y.	c #4385BD",
"z.	c #54A1CC",
"A.	c #1099C9",
"B.	c #14C3DD",
"C.	c #24E3E5",
"D.	c #21DDE4",
"E.	c #1FD8E2",
"F.	c #1ED6E2",
"G.	c #1CD4E1",
"H.	c #1BD2E1",
"I.	c #14A0CB",
"J.	c #AAAA00",
"K.	c #43927F",
"L.	c #25E5E6",
"M.	c #20DBE3",
"N.	c #1FD9E3",
"O.	c #1DD4E1",
"P.	c #15A2BD",
"Q.	c #118995",
"R.	c #1088A3",
"S.	c #26E6E6",
"T.	c #26E5E6",
"U.	c #1ED7E2",
"V.	c #1CD2E1",
". + @ # $ % & * = - ; > , ' ) ! ",
"~ . + @ # { ] ^ / ( - ; > , _ ) ",
": ~ . + @ < [ } | 1 ( - ; > , _ ",
"2 : ~ . + 3 4 5 6 7 1 8 9 ; > , ",
"0 2 a b c d e f g h i * j k l m ",
"n o p q r s t u v w x y z A B C ",
"D E F G H I J K L M N ] O / P 9 ",
"Q R S T U V W r X Y Z `  ...+.@.",
"#.$.%.&.*.=.-.;.>.,.'.).!.~.{.].",
"^.#./.(._.:.<.[.}.|.1.2.3.4.5.% ",
"6.^.#.7.8.9.0.a.b.}.c.d.e.3.4.5.",
"f.6.^.g.h.i.j.k.l.m.d.d.d.n.o.4.",
"p.q.6.r.s.t.u.v.w.l.x.y.z.A.B.o.",
"C.p.q.D.^.E.F.G.H.w.I.J.K.~ . + ",
"L.C.p.q.D.M.N.F.O.H.P.Q.R.: ~ . ",
"S.T.C.p.q.D.M.N.U.Q V.w.l.m.: ~ "};
