/* XPM */
static char * gems2_xpm[] = {
"32 32 417 2",
"  	c None",
". 	c #15C6DE",
"+ 	c #14C5DD",
"@ 	c #14C4DD",
"# 	c #13C3DD",
"$ 	c #13C2DD",
"% 	c #12C1DC",
"& 	c #12BFDC",
"* 	c #11BFDC",
"= 	c #10BDDC",
"- 	c #10BDDB",
"; 	c #0FBBDB",
"> 	c #0EB9DB",
", 	c #0EB8DA",
"' 	c #0DB7DA",
") 	c #0DB6DA",
"! 	c #0CB5D9",
"~ 	c #0CB4D9",
"{ 	c #0BB3D9",
"] 	c #0BB2D9",
"^ 	c #0AB1D8",
"/ 	c #09B0D8",
"( 	c #09AFD8",
"_ 	c #08AED8",
": 	c #08ADD7",
"< 	c #07ACD7",
"[ 	c #06ABD7",
"} 	c #06AAD7",
"| 	c #05A9D6",
"1 	c #05A8D6",
"2 	c #04A7D6",
"3 	c #04A6D6",
"4 	c #15C7DE",
"5 	c #10BCDB",
"6 	c #15B3DC",
"7 	c #318BDC",
"8 	c #4374DD",
"9 	c #3782DD",
"0 	c #2794DB",
"a 	c #1BA3DA",
"b 	c #0BB4D9",
"c 	c #0AB2D9",
"d 	c #16C8DE",
"e 	c #16C7DE",
"f 	c #15C5DE",
"g 	c #12C0DC",
"h 	c #10BEDC",
"i 	c #21A5DC",
"j 	c #6D3FE0",
"k 	c #6747E0",
"l 	c #6050DF",
"m 	c #6F3DE0",
"n 	c #8224E1",
"o 	c #3189DC",
"p 	c #0CB5DA",
"q 	c #07ABD7",
"r 	c #16C9DE",
"s 	c #1FABDD",
"t 	c #654CE0",
"u 	c #417ADE",
"v 	c #18B0DC",
"w 	c #10B9DB",
"x 	c #249CDB",
"y 	c #703BE0",
"z 	c #1FA1DB",
"A 	c #0CB6DA",
"B 	c #17CADF",
"C 	c #17C9DF",
"D 	c #14C3DD",
"E 	c #12C1DD",
"F 	c #4676DE",
"G 	c #5E56DF",
"H 	c #11BEDC",
"I 	c #0FBCDB",
"J 	c #0EB9DA",
"K 	c #0AB1D9",
"L 	c #0AB0D8",
"M 	c #18CBDF",
"N 	c #289EDD",
"O 	c #5F53DF",
"P 	c #5262DF",
"Q 	c #1DA6DB",
"R 	c #18CCDF",
"S 	c #6A47E0",
"T 	c #4776DF",
"U 	c #23A7DD",
"V 	c #4577DE",
"W 	c #703CE0",
"X 	c #555EDF",
"Y 	c #0EBADB",
"Z 	c #0DB8DA",
"` 	c #08ADD8",
" .	c #19CEE0",
"..	c #17C9DE",
"+.	c #4A74DF",
"@.	c #7832E1",
"#.	c #5168DF",
"$.	c #4578DE",
"%.	c #4E6BDF",
"&.	c #7930E1",
"*.	c #338EDD",
"=.	c #1ACFE0",
"-.	c #18CDDF",
";.	c #17C0DD",
">.	c #3296DE",
",.	c #5A5DE0",
"'.	c #6055E0",
").	c #2E97DE",
"!.	c #0FBADB",
"~.	c #1AD0E0",
"{.	c #1DC3DF",
"].	c #3897E0",
"^.	c #487DE0",
"/.	c #3D8DDF",
"(.	c #2EA2DF",
"_.	c #2EA1DE",
":.	c #477BDF",
"<.	c #477ADF",
"[.	c #467ADF",
"}.	c #4679DF",
"|.	c #4678DE",
"1.	c #3193DD",
"2.	c #427BDE",
"3.	c #3783DD",
"4.	c #4373DD",
"5.	c #1FA0DB",
"6.	c #2793DB",
"7.	c #3F75DD",
"8.	c #357FDC",
"9.	c #2E86DB",
"0.	c #0FA9D8",
"a.	c #1BD1E0",
"b.	c #29B4E0",
"c.	c #6F43E1",
"d.	c #6A4BE1",
"e.	c #6356E1",
"f.	c #7040E1",
"g.	c #8225E1",
"h.	c #536CE0",
"i.	c #6A48E1",
"j.	c #8127E1",
"k.	c #6056E0",
"l.	c #7E2AE1",
"m.	c #378DDE",
"n.	c #7A30E1",
"o.	c #6A44E0",
"p.	c #1CADDC",
"q.	c #11BADB",
"r.	c #3D7FDE",
"s.	c #861EE1",
"t.	c #7239E0",
"u.	c #2C90DC",
"v.	c #535EDE",
"w.	c #6A42E0",
"x.	c #5E51DF",
"y.	c #7731E0",
"z.	c #1C9CDA",
"A.	c #1BD2E1",
"B.	c #27BAE0",
"C.	c #6750E1",
"D.	c #4784E0",
"E.	c #21C0DF",
"F.	c #19CADF",
"G.	c #2CABE0",
"H.	c #723EE1",
"I.	c #27AFDF",
"J.	c #3994DF",
"K.	c #703FE1",
"L.	c #23B1DE",
"M.	c #3397DE",
"N.	c #3790DF",
"O.	c #674BE0",
"P.	c #1BB5DD",
"Q.	c #6848E0",
"R.	c #7634E1",
"S.	c #289FDD",
"T.	c #2E94DD",
"U.	c #8026E1",
"V.	c #3C7EDD",
"W.	c #308DDC",
"X.	c #6E3DE0",
"Y.	c #19A8DB",
"Z.	c #3E78DD",
"`.	c #7138E0",
" +	c #1CD3E1",
".+	c #1CD2E1",
"++	c #4B80E1",
"@+	c #615CE1",
"#+	c #19CDDF",
"$+	c #5766E0",
"%+	c #7637E1",
"&+	c #6550E1",
"*+	c #6550E0",
"=+	c #1ABCDD",
"-+	c #19BCDD",
";+	c #2BA0DE",
">+	c #6F3EE0",
",+	c #4C6EDF",
"'+	c #7634E0",
")+	c #4A6FDE",
"!+	c #289ADD",
"~+	c #2E92DD",
"{+	c #7732E1",
"]+	c #486EDE",
"^+	c #3288DD",
"/+	c #219CDB",
"(+	c #0FB1DA",
"_+	c #1CD4E1",
":+	c #4B7FE1",
"<+	c #2FACE0",
"[+	c #6259E1",
"}+	c #5769E1",
"|+	c #25B6E0",
"1+	c #684DE1",
"2+	c #6551E1",
"3+	c #7B2FE1",
"4+	c #497AE0",
"5+	c #1ABEDE",
"6+	c #3791DF",
"7+	c #723AE0",
"8+	c #585EDF",
"9+	c #5760DF",
"0+	c #20A7DC",
"a+	c #14B5DC",
"b+	c #348ADD",
"c+	c #5A58DF",
"d+	c #7337E0",
"e+	c #3089DC",
"f+	c #1DD5E2",
"g+	c #1DD5E1",
"h+	c #6C4BE1",
"i+	c #4C80E1",
"j+	c #1BD1E1",
"k+	c #2BB6E0",
"l+	c #4A81E0",
"m+	c #723FE1",
"n+	c #5965E0",
"o+	c #20BFDF",
"p+	c #31A2DF",
"q+	c #349BDF",
"r+	c #24B3DF",
"s+	c #674CE0",
"t+	c #3892DF",
"u+	c #516CDF",
"v+	c #5664DF",
"w+	c #3198DE",
"x+	c #6153E0",
"y+	c #18B8DC",
"z+	c #4B70DF",
"A+	c #5C58DF",
"B+	c #1FAADC",
"C+	c #2C95DD",
"D+	c #5F50DF",
"E+	c #4A6ADE",
"F+	c #1ED6E2",
"G+	c #4F7DE1",
"H+	c #7935E1",
"I+	c #5571E1",
"J+	c #4B81E1",
"K+	c #5274E1",
"L+	c #7A32E1",
"M+	c #5966E0",
"N+	c #6258E1",
"O+	c #6157E0",
"P+	c #7537E1",
"Q+	c #5665E0",
"R+	c #7833E1",
"S+	c #733BE1",
"T+	c #457CDF",
"U+	c #1AB8DE",
"V+	c #5465DF",
"W+	c #7338E0",
"X+	c #5363DF",
"Y+	c #8520E1",
"Z+	c #4475DE",
"`+	c #565EDF",
" @	c #6C41E0",
".@	c #2798DC",
"+@	c #1ED8E2",
"@@	c #1ED7E2",
"#@	c #20D1E2",
"$@	c #39A3E1",
"%@	c #5D64E1",
"&@	c #635BE1",
"*@	c #5570E1",
"=@	c #35A4E0",
"-@	c #4A80E0",
";@	c #4980E0",
">@	c #497FE0",
",@	c #497EE0",
"'@	c #3D8EDF",
")@	c #3796DF",
"!@	c #477CE0",
"~@	c #2BA4DE",
"{@	c #4082DF",
"]@	c #4081DE",
"^@	c #2E98DD",
"/@	c #3C83DE",
"(@	c #4D6CDF",
"_@	c #4D6ADF",
":@	c #1AABDC",
"<@	c #1FD9E2",
"[@	c #1CD5E1",
"}@	c #25C0E1",
"|@	c #3F92E0",
"1@	c #19CDE0",
"2@	c #3998E0",
"3@	c #497DE0",
"4@	c #2CA7DF",
"5@	c #11C0DC",
"6@	c #1FDAE3",
"7@	c #1DD6E2",
"8@	c #36A6E1",
"9@	c #7639E1",
"0@	c #1DCBE0",
"a@	c #408FE0",
"b@	c #7E2BE1",
"c@	c #743AE1",
"d@	c #3897DF",
"e@	c #20DBE3",
"f@	c #20DAE3",
"g@	c #6654E1",
"h@	c #2DB2E0",
"i@	c #2AB5E0",
"j@	c #8423E1",
"k@	c #4E76E0",
"l@	c #06B7C0",
"m@	c #0ABAC9",
"n@	c #21DCE3",
"o@	c #1FD9E3",
"p@	c #1FD0E1",
"q@	c #7737E1",
"r@	c #5D63E1",
"s@	c #6F44E1",
"t@	c #5E60E0",
"u@	c #733DE1",
"v@	c #2EABE0",
"w@	c #17CBDF",
"x@	c #24CEE2",
"y@	c #7BF2F7",
"z@	c #98FEFE",
"A@	c #AFFEFE",
"B@	c #8AE3EF",
"C@	c #21DDE3",
"D@	c #2FB6E2",
"E@	c #7340E1",
"F@	c #605FE1",
"G@	c #6556E1",
"H@	c #399EE0",
"I@	c #7934E1",
"J@	c #1FC6E0",
"K@	c #38D0D5",
"L@	c #C6FEFE",
"M@	c #22DEE4",
"N@	c #21DDE4",
"O@	c #1FD8E2",
"P@	c #4A8AE2",
"Q@	c #635BE2",
"R@	c #31B1E2",
"S@	c #2CB8E1",
"T@	c #448DE1",
"U@	c #6C4AE1",
"V@	c #6CEBF3",
"W@	c #22DFE4",
"X@	c #34B4E2",
"Y@	c #7341E2",
"Z@	c #7837E2",
"`@	c #517BE2",
" #	c #2ABEE1",
".#	c #4B83E1",
"+#	c #743EE1",
"@#	c #7C30E1",
"##	c #35A5E0",
"$#	c #19CFE0",
"%#	c #23E0E4",
"&#	c #20DCE3",
"*#	c #2FBFE3",
"=#	c #4D86E2",
"-#	c #38A9E2",
";#	c #20D2E2",
">#	c #3F9AE2",
",#	c #26C0E1",
"'#	c #21389C",
")#	c #87E2F0",
"!#	c #65A9D4",
"~#	c #76C6E2",
"{#	c #06419F",
"]#	c #23E2E5",
"^#	c #22E0E4",
"/#	c #0B5BAA",
"(#	c #2187B2",
"_#	c #00007F",
":#	c #32A4C0",
"<#	c #101C8E",
"[#	c #109BC9",
"}#	c #24E3E5",
"|#	c #24E2E5",
"1#	c #23E1E4",
"2#	c #0D72B5",
"3#	c #C6C600",
"4#	c #AAAA00",
"5#	c #90A435",
"6#	c #119CC9",
"7#	c #25E4E5",
"8#	c #21DEE4",
"9#	c #0E72B5",
"0#	c #8E8E00",
"a#	c #576B35",
"b#	c #129DC9",
"c#	c #25E5E5",
"d#	c #1DD4E1",
"e#	c #14A2CB",
"f#	c #084567",
"g#	c #08444A",
"h#	c #084483",
"i#	c #26E6E6",
"j#	c #26E5E6",
". + @ # $ % & * = - ; ; > , ' ) ! ~ { ] ^ / ( _ : < [ } | 1 2 3 ",
"4 . + @ # $ % & * = 5 ; 6 7 8 9 0 a b { c ^ / ( _ : < [ } | 1 2 ",
"d e . f @ # $ % g * h i j k l m n o p ~ { ] ^ / ( _ : < q } | 1 ",
"r d 4 . + @ # $ % g s t u v w x y z A p b { c ^ / ( _ : < q } | ",
"B C d e . f @ D $ E F G H - I ; > J ' ' p ! { { K L ( _ : < q } ",
"M B r d 4 . + @ # $ G F * N O O P Q J ' ) p b { c K / ( _ : < q ",
"R R B B d d . f @ D S T g U V W X 6 Y J Z ' p ! { { K ^ ( ( ` < ",
" .R M B ..d 4 . + @ +.@.#.$.%.&.*.5 ; Y J Z ' A ! { c K / ( _ ` ",
"=. .-.R B B d d . . ;.>.,.'.#.).H = 5 ; !.> Z ' A ! b { K ^ ( ( ",
"~.=. .-.{.].^./.(._.:.<.[.}.|.$.1.2.*.5 ; !.3.4.5.A 6.7.8.9.0.( ",
"a.~.=.b.c.d.e.f.g.h.i.j.k.k.S l.m.n.o.p.q.r.s.t.u.v.w.x.y.s.z.^ ",
"A.a.B.C.D.E.F.G.H.I.J.K.L.M.N.O.P.Q.R.S.T.@.U.V.W.X.Y.A Z.`.{ c ",
" +.+++@+=. .#+R M B $+%+&+*+=+-+;+@.>+,+'+)+@.!+~+{+]+^+/+(+b { ",
"_+ +@+:+~.<+[+[+}+|+1+2+3+4+5+=+6+7+8+U.9+1.>+0+a+b+c+X.d+e+! b ",
"f+g+h+i+j+k+l+m+n+o+3+p+q+r+s+t+u+v+w+x+y+z+A+B+d+C+!.Y D+E+) p ",
"F+f+G+H+I+J+K+L+M+N+j.1+O+O+P+Q+R+S+T+U+V+R.W+X+Y+j Z+`+ @.@' ) ",
"+@@@#@$@%@&@*@=@<+-@;@>@,@,@'@)@!@:.~@@ {@}.]@^@/@(@O _@:@Y , Z ",
"<@+@@@f+[@ +A.}@l+|@ .1@R 2@3@4@d 4 . + @ # $ % 5@* h 5 I !.J , ",
"6@<@+@@@7@g+ +8@9@j.0@=.a@b@c@d@C d e . + @ # $ % g * H - 5 !.!.",
"e@f@<@+@@@7@g+_+g@s.h@i@9@j@k@M B C d e . + l@l@m@% 5@* h - I ; ",
"n@e@f@o@+@@@7@p@q@L+r@s@t@u@v@#+M w@C r x@y@z@z@A@B@% g * H - 5 ",
"C@n@e@f@<@+@@@D@E@F@g.G@H@I@J@1@R M B C K@z@z@z@L@A@m@% g * h - ",
"M@N@n@e@f@o@O@P@Q@R@&@S@T@U@~.=. .#+M M z@z@z@z@z@z@V@$ % g * H ",
"W@M@C@n@e@f@X@Y@Z@`@ #.#+#@###~.$# .-.M z@z@z@z@z@z@V@# $ E g * ",
"%#%#M@M@n@&#*#=#=#-#;#>#.#.#,#j+~.=. .#+'#)#)#!#z@~#{#+ D # E g ",
"]#%#^#M@C@n@e@f@<@O@@@F+g+_+ +A.a.~.$# ./#'#(#_#:#<#[#f @ D $ E ",
"}#|#1#%#M@M@n@n@f@6@O@+@F+f+_+ +A.j+~.=. .2#3#4#5#6#d 4 f + D # ",
"7#}#|#1#^#W@8#n@e@f@<@O@@@F+g+_+ +A.a.~.=.9#0#4#a#b#r d 4 . + D ",
"c#7#}#|#1#%#W@M@C@n@f@6@O@+@F+7@d#_+A.j+e#f#g#g#g#h#B C d e . + ",
"i#c#7#}#|#1#^#W@8#C@&#e@6@O@@@F+g+d# +A.a.~.=. .#+R w@B r d 4 . ",
"i#i#c#7#}#|#1#%#W@M@C@n@e@f@<@+@F+7@d#_+.+A.~.=. .1@R M B C d e ",
"i#i#i#j#7#}#|#1#%#W@8#C@&#e@6@<@+@F+7@d# +.+a.~.=. .#+R w@B r d "};
