/* XPM */
static char *gems32[]={
"48 48 744 2",
".Q c #314ed6",
"#a c #314fd6",
".P c #3150d6",
".N c #3152d6",
"#. c #3153d6",
".9 c #3154d6",
".K c #3155d6",
".8 c #3156d6",
".I c #3157d6",
"#F c #3158d6",
"#E c #3159d6",
".G c #315ad6",
".E c #315bd6",
"#C c #315cd6",
"#R c #315dd6",
"#B c #315ed6",
".4 c #315fd6",
".A c #3160d6",
"#n c #3161d6",
".z c #3162d6",
"aW c #3163d6",
".2 c #3164d6",
".w c #3165d6",
".v c #3166d6",
".Z c #3167d6",
".Y c #3168d6",
"#m c #3169d6",
"#z c #316ad6",
"#y c #316bd6",
".p c #316cd6",
"#1 c #316dd6",
"aE c #316ed6",
"ak c #316fd6",
"aD c #3170d6",
".l c #3171d6",
"a. c #3172d6",
"aV c #3173d6",
".i c #3174d6",
"#X c #3175d6",
"af c #3176d5",
".U c #3176d6",
"b# c #3177d6",
"aq c #3178d5",
"ae c #3178d6",
"#U c #3179d6",
"#t c #317ad6",
"#d c #317bd6",
"#c c #317cd6",
".S c #317dd6",
"#I c #317ed6",
"a6 c #317fd5",
"#5 c #317fd6",
"an c #3180d6",
"#4 c #3181d6",
"#s c #3182d6",
"#r c #3183d6",
"#H c #3184d6",
"cP c #3185d5",
"au c #3185d6",
"gl c #3186d6",
"ab c #3187d6",
"a5 c #3188d6",
"cN c #3189d6",
"aM c #318ad6",
"fH c #318bd6",
"aL c #318cd6",
"bc c #318dd6",
"a4 c #318ed6",
"ff c #318fd6",
"fs c #3190d6",
"jl c #3191d6",
"ck c #3192d6",
"fr c #3193d6",
"fE c #3194d6",
"fD c #3196d6",
"fY c #3197d6",
"fn c #3198d6",
"ex c #3199d6",
"fm c #319ad6",
"fM c #319bd6",
"fk c #319cd6",
"gA c #319dd6",
"hu c #319ed6",
"fX c #319fd6",
"gz c #31a0d6",
"ht c #31a1d6",
"gS c #31a2d6",
"iX c #31a3d6",
"jk c #31a7d6",
"jL c #31abd6",
"jJ c #31aed5",
".O c #3250d6",
"#q c #3251d6",
"## c #3252d6",
".M c #3253d6",
".L c #3254d6",
"#p c #3255d6",
".J c #3256d6",
"#o c #3257d6",
".H c #3258d6",
".7 c #3259d6",
".F c #325ad6",
"#D c #325bd6",
".6 c #325cd6",
".D c #325dd6",
".5 c #325ed6",
".C c #325fd6",
".B c #3260d6",
".3 c #3261d6",
".y c #3262d6",
".x c #3263d6",
"cH c #3264d5",
".1 c #3264d6",
"#A c #3265d6",
".0 c #3266d6",
".u c #3267d6",
"bx c #3268d5",
".t c #3268d6",
".s c #3269d6",
".r c #326ad6",
".q c #326bd6",
"#2 c #326cd6",
".o c #326dd6",
".n c #326ed6",
".X c #326fd6",
".m c #3270d6",
"et c #3271d5",
".k c #3271d6",
"#e c #3272d6",
".j c #3273d6",
"gx c #3274d4",
".W c #3274d6",
"fg c #3275d5",
".V c #3275d6",
".h c #3276d6",
".T c #3277d6",
"g. c #3278d5",
".g c #3278d6",
"b9 c #3279d5",
".f c #3279d6",
".e c #327ad6",
".d c #327bd6",
"ia c #327cd4",
".c c #327cd6",
".b c #327dd6",
".a c #327ed6",
".# c #327fd6",
"Qt c #3280d6",
"#b c #3281d6",
".R c #3282d6",
"#T c #3283d6",
"#G c #3284d6",
"#S c #3285d6",
"am c #3286d6",
"#3 c #3287d6",
"aa c #3288d6",
"al c #3289d6",
"at c #328ad6",
"aF c #328bd6",
"aY c #328cd6",
"aX c #328dd6",
"c9 c #328ed5",
"bb c #328ed6",
"ba c #328fd6",
"bF c #3290d6",
"ds c #3291d5",
"bT c #3291d6",
"ee c #3292d6",
"cI c #3293d6",
"fq c #3294d6",
"c6 c #3295d6",
"fp c #3296d6",
"fa c #3297d5",
"dK c #3297d6",
"fo c #3298d6",
"eX c #3299d6",
"eW c #329ad6",
"fl c #329bd6",
"fC c #329cd6",
"fB c #329dd6",
"fL c #329ed6",
"ge c #329fd6",
"gd c #32a0d6",
"ha c #32a1d6",
"gy c #32a2d6",
"h# c #32a3d6",
"hs c #32a4d6",
"hK c #32a5d6",
"h1 c #32a6d6",
"in c #32a7d6",
"id c #32a8d6",
"im c #32a9d6",
"iy c #32aad6",
"i9 c #32abd6",
"jj c #32acd5",
"iW c #32acd6",
"i8 c #32add5",
"jK c #32add6",
"ji c #32aed5",
"jr c #32afd5",
"jB c #32b0d5",
"jH c #32b1d5",
"jI c #32b2d5",
"bw c #336bd4",
"cy c #3375d4",
"a3 c #3378d3",
"ax c #3379d4",
"aI c #337bd4",
"fA c #3382d4",
"jC c #338cd4",
"f1 c #338dd4",
"dN c #3391d4",
"ed c #3393d4",
"cE c #346bd3",
"f# c #346ed3",
"a# c #3472d3",
"#9 c #3478d3",
"f9 c #3479d3",
"hi c #3481d3",
"de c #3482d2",
"iH c #3482d3",
"cO c #348ad3",
"js c #348dd3",
"cM c #3490d3",
"hf c #3491d3",
"d7 c #3575d1",
"#J c #3579d2",
"f8 c #357ad2",
"eo c #357cd1",
"bU c #3590d2",
"e. c #366fd1",
"#6 c #367cd1",
"hV c #367ed1",
"gm c #3681d0",
"hz c #3693d1",
"cJ c #3694d1",
"hL c #369bd1",
"bQ c #376ecf",
"g# c #3778d0",
"gJ c #377fd0",
"hC c #3781d0",
"ct c #3782cf",
"g9 c #3878cf",
"f5 c #387ecf",
"fw c #388acf",
"db c #388ece",
"f2 c #3890ce",
"bG c #3891ce",
"eu c #3972ce",
"bs c #3972cf",
"aj c #3976ce",
"cz c #3978ce",
"#u c #3979ce",
"iU c #3981ce",
"iZ c #398acf",
"ei c #398bcd",
"da c #398fcd",
"c3 c #3a6fcd",
"ai c #3a77cd",
"ah c #3a78cd",
"ag c #3a7acd",
"hJ c #3a7bcd",
"fK c #3a88cd",
"d# c #3a90cd",
"d. c #3a91cd",
"bP c #3b71cd",
"c5 c #3d6eca",
"hq c #3d7bca",
"go c #3d7fc9",
"#N c #3e7ac9",
"dE c #3e7bc9",
"d3 c #3e83c9",
"bY c #3e90c9",
"gY c #3e91c9",
"cg c #3f70c9",
"cr c #3f88c8",
"io c #3f8bc9",
"hd c #3f99c9",
"gc c #4078c8",
"ic c #407dc7",
"eO c #4084c7",
"dY c #408bc7",
"hP c #409ac7",
"cv c #4184c7",
"df c #4185c7",
"em c #4186c7",
"dV c #418fc6",
"gB c #419bc7",
"hw c #419dc7",
"cq c #428bc5",
"b. c #4385c5",
"fe c #439bc5",
"gq c #447fc4",
"i3 c #4487c3",
"cj c #4572c2",
"hG c #4580c3",
"bL c #4583c3",
"fF c #4599c3",
"jG c #468bc1",
"h2 c #46a5c1",
"br c #4781c0",
"a7 c #488bc0",
"fv c #4896c0",
"fb c #48a1c0",
"c4 c #4978bf",
"dc c #4992bf",
"gt c #4a7ebe",
"fR c #4a80bf",
"ik c #4a81bf",
"ij c #4a82bf",
"iN c #4a8cbf",
"bk c #4a90bd",
"#O c #4b82bd",
"b2 c #4b92bd",
"bZ c #4b96bd",
"gv c #4c7dbd",
"gu c #4c7ebc",
"#Y c #4c81bd",
"gI c #4c84bc",
"iQ c #4c8abd",
"iL c #4c8fbd",
"cn c #4c96bd",
"cc c #4d80bb",
"fh c #4d85bb",
"e3 c #4d92bb",
"cQ c #4d93bb",
"fQ c #4d94bb",
"dJ c #4e7cbb",
"cf c #4e7db9",
"ey c #4ea5b9",
"ep c #4f89b9",
"aN c #4f91b9",
"hA c #4f9fb9",
"fj c #5187b7",
"i2 c #518bb7",
"jD c #518fb8",
"cS c #5191b7",
"ew c #5281b6",
"gW c #529eb6",
"d9 c #5388b4",
"aC c #5388b6",
"dC c #538ab6",
"dS c #539cb6",
"gh c #539fb5",
"cW c #548bb5",
"e7 c #548db4",
"j# c #5490b4",
"h6 c #54a0b4",
"dF c #5586b4",
"cT c #5593b3",
"g5 c #5683b2",
"gp c #5684b3",
"i6 c #5788b2",
"eE c #57a1b1",
"#M c #588cb0",
"aU c #588db1",
"bE c #597eb0",
"#f c #598caf",
"iB c #598eb0",
"bX c #599fb0",
"jn c #5a91af",
"bd c #5a9faf",
"eF c #5aa1af",
"fd c #5aa7ae",
"eR c #5b90ae",
"ac c #5b94ae",
"a9 c #5b95ae",
"hS c #5ba3ae",
"c7 c #5ba7ae",
"fP c #5ca0ac",
"c2 c #5d89ac",
"ca c #5d8eac",
"fi c #5d90ab",
"a8 c #5d97ac",
"dU c #5d9fac",
"fc c #5da9ac",
"i# c #5e87ac",
"hU c #5f89aa",
"h8 c #5f8aaa",
"if c #5f8baa",
"jF c #5f8faa",
"e5 c #5f98aa",
"iz c #6090a9",
"eK c #609caa",
"h4 c #60a9aa",
"fW c #6281a7",
"jE c #6291a7",
"g3 c #6388a6",
"gG c #63a4a6",
"iF c #648da6",
"dl c #6493a6",
"aZ c #649da6",
"eY c #64aea6",
"jh c #658ba4",
"by c #658ca4",
"dp c #658da4",
"jp c #6590a4",
"h0 c #6686a3",
"g4 c #6688a4",
"aw c #669ba4",
"dM c #66aca4",
"hc c #66ada3",
"d2 c #679ca3",
"dz c #679da3",
"gT c #67aea3",
"b8 c #689ca1",
"hI c #6988a1",
"gZ c #698da1",
"b6 c #6a9fa0",
"b5 c #6aa0a0",
"f7 c #6b899e",
"h3 c #6bb19e",
"g1 c #6c8c9e",
"bS c #6c8e9e",
"dB c #6c9e9e",
"e4 c #6ca09e",
"gV c #6cae9e",
"iD c #6d909d",
"gR c #6e859c",
"hY c #6e899c",
"jA c #6f909b",
"jw c #6f939b",
"er c #6f9b9b",
"bq c #6f9c9b",
"bp c #6f9e9b",
"dv c #6fa99b",
"ft c #6fad9b",
"ip c #70929a",
"g6 c #718999",
"jx c #719299",
"#0 c #719999",
"co c #71a999",
"ea c #729798",
"eN c #72a398",
"dr c #72b197",
"hO c #72b398",
"ch c #739697",
"ap c #73a297",
"dX c #73a897",
"gQ c #748796",
"ej c #74a996",
"bC c #759595",
"aJ c #75a195",
"ef c #75b095",
"hT c #768e95",
"h7 c #768f95",
"ie c #769095",
"hj c #778e93",
"#k c #779c93",
"bi c #77ab93",
"ga c #788992",
"hl c #788e92",
"iE c #799191",
"hZ c #7b8c8f",
"a2 c #7ba68f",
"e1 c #7bb58f",
"jb c #7c948f",
"iM c #7c958f",
"g8 c #7d8b8e",
"jo c #7d958d",
"fS c #7e8c8d",
"hF c #7e8e8d",
"iv c #7e918c",
"aK c #7ea68d",
"d0 c #7eac8d",
"eg c #7eb48d",
"j. c #7f978b",
"jg c #80928b",
"bv c #80a28b",
"dm c #80a38b",
"cs c #80ad8b",
"fz c #80af8b",
"fG c #80b58a",
"g2 c #81908a",
"bM c #81a78a",
"hW c #829089",
"jv c #829689",
"ao c #82ac89",
"dq c #82ba89",
"en c #83ad88",
"ek c #83b088",
"hx c #83ba88",
"fT c #858d87",
"f6 c #858f87",
"iJ c #859286",
"jt c #879885",
"as c #87aa85",
"#V c #87ad85",
"du c #87b785",
"cl c #87ba85",
"ii c #889183",
"iS c #889483",
"f. c #88a983",
"e2 c #88ba83",
"iq c #8a9681",
"cZ c #8aac81",
"bl c #8ab381",
"gk c #8ab881",
"bt c #8bab81",
"fx c #8bb781",
"jy c #8c977f",
"bu c #8cab7f",
"d8 c #8cae7f",
"#W c #8caf7f",
"bo c #8cb17f",
"bn c #8cb27f",
"bm c #8cb37f",
"aG c #8cb47f",
"b4 c #8cb57f",
"fy c #8cb77f",
"fu c #8cbb7f",
"cm c #8cbc7f",
"hy c #8cbe7f",
"eb c #8cc07f",
"fU c #8d8f7e",
"iA c #8d987e",
"dA c #8db37e",
"d1 c #8db57e",
"gU c #8dbf7e",
"hb c #8dc07e",
"iw c #8e937d",
"ig c #8e947d",
"dG c #8ead7e",
"d4 c #8eb27e",
"he c #8ebd7e",
"gN c #90917c",
"bK c #90b37c",
"fV c #918f7a",
"jq c #91957b",
"iI c #92957a",
"iP c #949878",
"dk c #94b378",
"gF c #94bf78",
"hm c #959477",
"cd c #95b176",
"dT c #95be76",
"iY c #969a76",
"#j c #96b276",
"bh c #96bd76",
"il c #979375",
"eB c #97c374",
"gn c #989574",
"ja c #989a74",
"c1 c #98b374",
"bN c #98b474",
"#g c #98b574",
"cX c #98b774",
"aR c #98b974",
"fI c #98bf74",
"be c #98c074",
"gi c #98c174",
"gH c #999673",
"av c #99bb73",
"dL c #99c673",
"e8 c #9bb872",
"ad c #9bba71",
"dh c #9bbb71",
"c8 c #9bc571",
"g7 c #9d946f",
"hD c #9d9770",
"aQ c #9dbd6f",
"eA c #9dc76f",
"h. c #9e936e",
"jm c #9e9c6e",
"c. c #9ebc6e",
"fN c #9ec66e",
"iK c #9f966d",
"ih c #9f976e",
"ir c #a09a6c",
"bz c #a0b56d",
"iV c #a1976c",
"#P c #a1ba6c",
"es c #a1bb6c",
"b0 c #a1c36c",
"gM c #a2966b",
"is c #a29a6b",
"eV c #a2ba6b",
"hr c #a3956a",
"ix c #a3966a",
"i7 c #a3986a",
"jf c #a3996a",
"eT c #a3bc6a",
"iR c #a49a68",
"ju c #a49c68",
"aH c #a4c168",
"cR c #a4c468",
"ec c #a4cb68",
"iG c #a59968",
"hH c #a69766",
"#L c #a6bf67",
"bH c #a6c866",
"bW c #a6c867",
"hB c #a6c966",
"i5 c #a79a66",
"ce c #a7bc66",
"#l c #a7bd66",
"#v c #a7c066",
"eq c #a7c166",
"eL c #a7c566",
"bj c #a7c666",
"hM c #a7cd66",
"jz c #a89b65",
"cw c #a9c364",
"dx c #a9c764",
"fZ c #a9cb64",
"bD c #aabc63",
"hk c #ab9962",
"di c #abc362",
"b7 c #abc661",
"gD c #abcc62",
"gb c #ac9661",
"bB c #acbe61",
"ay c #acc561",
"b3 c #acc861",
"dO c #accd61",
"cu c #adc760",
"gw c #ae975f",
"g0 c #ae9a5f",
"bR c #aec25f",
"c# c #aec55f",
"aS c #aec65f",
"fO c #aecd5f",
"eC c #aece5f",
"bJ c #b0cb5d",
"ho c #b1995c",
"dH c #b1c45c",
"#Q c #b1c55c",
"cB c #b1c55d",
"b1 c #b1cc5c",
"f4 c #b1cc5d",
"cp c #b2cc5b",
"i1 c #b39d5a",
"dg c #b3ca5a",
"el c #b3cb5a",
"gC c #b3d15a",
"hv c #b3d25a",
"iT c #b49c59",
"iu c #b59d59",
"#i c #b5c759",
"#h c #b5c859",
"bg c #b5ce59",
"bf c #b5cf59",
"hn c #b69b57",
"i4 c #b69d57",
"bA c #b6c657",
"e# c #b6c758",
"gs c #b79a57",
"ib c #b79b57",
"#K c #b7cb56",
"gL c #b89b56",
"dD c #b8cb56",
"gX c #b8d156",
"bV c #b8d256",
"hE c #ba9c54",
"it c #ba9e53",
"dy c #bbd153",
"iC c #bc9f52",
"az c #bccf51",
"eh c #bcd352",
"jd c #bd9f51",
"dw c #bdd351",
"dP c #bdd451",
"h9 c #be9e50",
"do c #becd50",
"eG c #bed450",
"eS c #bfcf4f",
"cY c #bfd04f",
"gj c #bfd54f",
"ar c #c1d14d",
"dt c #c1d74d",
"ev c #c2d04d",
"eM c #c2d44c",
"eI c #c2d54c",
"eH c #c2d64c",
"hN c #c2d94c",
"dj c #c3d34b",
"gE c #c3d74b",
"e9 c #c4d34b",
"a1 c #c5d549",
"e0 c #c5d949",
"je c #c7a147",
"aA c #c7d547",
"dQ c #c7da47",
"cG c #c9d346",
"aP c #c9d845",
"dZ c #c9d846",
"ez c #c9dc45",
"a0 c #cad944",
"eZ c #cadc44",
"cF c #cbd643",
"cV c #cbd844",
"gg c #cbdc44",
"gr c #cca043",
"i. c #cca142",
"gO c #cda042",
"d6 c #cdd942",
"hh c #cddc42",
"cA c #ced941",
"aB c #ceda40",
"eP c #ceda41",
"f3 c #cedc41",
"dR c #cedd40",
"hQ c #cedd41",
"cU c #d0db3f",
"#8 c #d0dc3e",
"gf c #d0de3f",
"cL c #d0df3e",
"dW c #d2de3d",
"eQ c #d3dd3c",
"hR c #d3e03c",
"gP c #d5a23a",
"eJ c #d5e03a",
"eU c #d6de39",
"#x c #d8e037",
"bI c #d8e237",
"cC c #d9e036",
"dI c #dae136",
"cx c #dae235",
"#7 c #dae236",
"f0 c #dae335",
"cK c #dae336",
"e6 c #dbe234",
"h5 c #dbe434",
"i0 c #dca534",
"c0 c #dce234",
"d5 c #dde432",
"hg c #dde532",
"aT c #dee432",
"eD c #dee532",
"cD c #dfe431",
"bO c #dfe530",
"fJ c #dfe630",
"dd c #e0e630",
"iO c #e1a62f",
"jc c #e2a62e",
"#Z c #e2e72e",
"gK c #e4a62c",
"aO c #e4e82c",
"hp c #e5a62b",
"ci c #e5e82b",
"dn c #e5e92b",
"cb c #e6e92a",
"hX c #e7a72a",
"#w c #e7ea2a",
"Qt.#.a.b.c.d.e.f.g.h.h.i.j.j.k.l.m.n.o.p.q.r.s.t.u.v.w.x.y.z.A.B.C.D.D.E.F.G.H.I.J.K.L.M.N.O.P.Q",
".RQt.#.a.S.c.d.f.f.T.T.U.V.W.j.k.m.X.X.o.p.q.r.s.Y.Z.0.1.2.y.3.3.4.4.5.6.E.F.7.H.I.8.K.9#.##.P#a",
".R#bQtQt.#.b#c#d.e.g.g.U.V.W.j#e#f#g#h#i#j#k#l.r#m.t.u.v.w.1.y.y#n.A.4.5.6.E.F.7.H#o.J#p.9#.#q#q",
"#r#s#bQt.#.a.S#c.d#t.g.g.T.V#u#v#w#w#w#w#w#w#x#y#z.s.t.Z.0#A.1.y.y.A.C.5#B#C#D.G#E#F.I.8.L.9.M.N",
"#G#H.R#bQtQt#I.b.c.d.e.f.g#J#K#w#L#M#N#O#P#w#Q.p.q#z.t.Y.u.0.w.1.x.y.A.B.C#R.6#D.F#E#F#o.J.K.M##",
"#S#S#T.R#b#bQt.a.b.c#d.e#U#V#w#W#X.W#e#e#Y#Z#0#1#2.q.r.s.t.u.0.2.1.x.y.A.C.C#R#C.E.E#E.H#o.J#p.9",
"#3#S#G#G.R#b#4#5.a.b.c.d#6#7#8#9.h.i.ia..ka#.X.X.n#2.q#z.s.t.Z.v#A.1.x.3.A.C.4.5.6#D.F.7#F.I.J.K",
"aaab#S#S#G.R#s#b.#.a.S.cac#wadae.Tafagahaiaj.mak.n.o#2.q.r.s.t.Z.0#A.1.x.y.B.C.C#R.D#D.F#E#F#o.J",
"alababam#S#T.R.RanQt.a.bao#wap.faqar#w#w#w#was.k.mak.o#2.q.r.s.t.u.v.1.1.y#n.3.B.4.5#C#D.E.7#F#o",
"atalaa#3au#S#r.R#4Qt.#.#av#waw.eaxayazaA#waBaC.laDaDaE.o.o.q.r.s.t.u.w.1.1.y#n.3.C.5#R.6.E.G.7.H",
"aFalaaaa#3au#S#G.R#b#b.#aG#waHaI.e.f.gaJ#waK.ia.a..m.m.n.o.p.q#z.s.Y.u.v.2.1.z.3#n.A.4#B.6.E.G.7",
"aLaMatalaaamam#H#G.R.RQtaNaO#waPaQaRaSaT#waU.W.WaV.k.m.X.X#1.o.q#z.s.Y.u.0#A.1aW.y#n.C.C#R#R.6.F",
"aXaYaFatalaaamam#S#G#T.RanaZa0#w#w#w#wa1a2a3.h.V.j.j#e.mak.n.o.p.q#z.s.t.u.v#A.2.y.y.3.B#B.5.D#C",
"a4aXaYaMalala5amam#H#H#s.RQta6a7a8a9b..e#Uaeb#.h.W.WaV.kaD.X.X.o#2.q.r.s.t.u.0.1.2.x.z.B.4.4.5#C",
"babbbcaYaFbdbebfbgbhbibj.RbkblaGaGbmbmbnbnbobp.Tbq#W#Wbr.k.m.Xbsbtbubvbw.sbxbybzbAbBbCbDbE.C#B#R",
"bFbaa4bGbH#w#w#w#w#w#wbI#TbJ#w#w#w#w#w#w#w#wbKbL#w#w#wbM#e#e.mbN#w#wbObPbQbR#w#w#w#w#w#wbS.3.4#B",
"bTbFbUbV#wbWbXbYbZb0#wb1#Sb2b3#wb4b5b6b6b7#wb8b9c.#w#wc#.i#ecacb#w#xcc.pcd#wcecfcgchci#wcj.y#n.C",
"ckbTcl#wcmbcaYaFatcn#Zco#S#Gcp#wcqcrcsctcuaOcv.ecw#w#wcxcyczcA#w#wcB.n#1cCcDcE#m.t.ZcFcGcH.x.y.A",
"cIcJcKcLcMa4aXaLaFcNcOaa#3cPbIbIcQcR#wcScTa8.c#dcU#7cV#wcWcX#wcY#wcZ.m.nc0#wc1c2c3.Yc4c5#A.2.y.z",
"c6c7#wc8bFbac9d.d#dadbcN#3dc#w#w#w#wdddeQt.a#Idf#wdgdh#wdicbdjdk#wdl.m.Xdm#w#w#wdndodp.u.v.w.2aW",
"c6dq#wdrbTdsdt#w#w#w#wdualdv#wdwdx#wdy#b#bQt#Idz#wdAdB#w#waOdCdD#wdE#e.m.mdFdGdHdI#waOdJ.u.v.w.2",
"dKdL#wdMcIdNdOdPdQ#wdRdSaMdT#wdUdVdWdXdYdZd0.#d1#wd2d3cb#wd4#9d5d6.Wd7d8d9.Xak.oe.e##wea.t.u.0#A",
"dKeb#wecedeeeebTef#wegaLaFehdnei#3am#Sej#wek#bel#wem.benbneoep#weq.Ver#weset.X.Xeuev#wew.s.t.u.0",
"exeyaO#wezeAeBeCeD#weEeFeGaOaOeHeHeHeIeJ#weKeL#ZcbeMeN.ceOdgeP#weQeRcX#w#weS#geTeU#weV.q.r.s.Y.Z",
"eWeXeYeZ#w#w#w#we0e1cMe2#w#w#w#w#w#w#w#waOe3bO#w#w#Ze4.be5aO#w#we6e7e8e9aB#w#w#wcCf.f##2#y.q.s.t",
"eWeWeXfafbfcfdfeckeebFffbbaXaYaFatal#3abam#S#r#T.Ran.#.#.b.c#d#t#U.g.T.Ufgfhfifja#.X.n.n.p.q.r#m",
"fkflfmfnfodKfpfqfreebTfsffftfufufvatalaafwfxfyfzfA#s#b.#.#.b.c#d.e.f.g.T.h.V.W.ja..laD.n.o#2.q.r",
"fBfCfleWeXfofpfDfEfqcIbTfF#w#w#wfGfHatcNfI#w#wfJfK.R#bQt.##I.S.c#d.e#U.g.U.h.V.ia.#e.m.maE#1#2#2",
"fLfBfMfleXexdKfpc6fqcIeedsfN#w#wfOaYaFfPcb#wbIfQ#S#T.R#sQtan.a.a.c.dfRfSfTfUfVfW.WaV.k.m.X.n.n#2",
"fXfLfBfkfleXfodKfYfDfqfqfrfZ#w#wf0f1f2f3#w#wf4amam#S#T#T#b#b.#.af5f6f7f8f9g.g#gagbgc.ja..kaDaEaE",
"gdgefLfBfCflfmfofYfDfDfqfqgfcKgg#wghgi#wgj#wgkaaamglau#G#T#bQtgmgngogpgqgrgsgtgugvgwgxa.a..m.m.n",
"gygzgefLgAfleWeXfndKdKfpgB#wgCc8#wgDcbgEgF#wgGalaa#3amau#G#r#bgHgIgJgKgLgMgNgOgP.TgQgR.j.j.kaD.m",
"gSgygzgefLfBfMfleWeXfodKgT#wgUgV#w#waOgWgX#wgYatcN#3amam#S#G#TgZg0g1g2g3g4g5g6g7g8g9h..W.Wa..k.m",
"h#gyhagzgefLfBfCfleWeXdKhb#whchdcb#whehfhghhaYaFatala5amgl#S#H#Thihjhkhlhmhn.dhohphqhr.h.V.i#e#e",
"hsh#gyhtgdgehufBfMfleWeXhv#whwfEhxhyhzhA#whBbcaYaFataaaa#3gl#S#G#T#4hChDhEhFhGhHhIhJg7.T.h.V.W#e",
"hKhsh#gyhagzfXhugAfChLhM#ZcbhNhOc6hPgChQ#whRhSaXaYaFatcNaa#3gl#S#G.R#bhThUhVhWhXhYhZh0.g.T.U.V.j",
"h1hKhsh#h#hagdgefLgAh2fJ#w#w#Zh3fph4aO#w#wh5h6bbaXaLaFalala5#3am#S#G.Rh7h8h9i.i#iaibic.f.g.h.h#X",
"idh1h1hKh#h#hagzgefLfBfCfleWexfYdKfDfqfrckbTbFbFa4aXaYaFatcNaa#3amau#Gieifigihiiijikil.e.fae.T.h",
"iminh1hKhsh#h#hagdfXfLfBfkfMeXfofodKfpfqfEfrckbTbFbbbcaYaFatioipiqirisitiuivhUhXiw.bix.d.d.fae.h",
"iyiminh1h1hKh#gyhtgdgehugAfCfleWeXfofpc6c6cIfrckfsbaa4aXaYaFiziAiBiCiDiEiFiGiHiIiJ.#iK#c#d.e.f.g",
"iyimididh1h1hsh#h#hagzgefLfBfCfMfmeXdKdKfpc6cIeeeebFbaa4aXaYiLiMiNiOiPiQiRiS.RiTgKiUiV.b#c.d#t.f",
"iWiyiyimidh1h1hKiXgyhagzgehugAfCfleXeXdKdKc6c6fqfrbTbFbFbbbcaYiYaMiZi0i1i2i3i4i5i6hii7.a.a.b.d.e",
"i8i9iyiyidinh1h1hsh#gyhagdfXfLfBflfMeWeXfodKfpfqcIcIbTbTbabbaXj.j#atjajbjcjdjejf#Tjgjh.#.a.b#c.c",
"jijjiWi9iyididjkh1hKh#gyhagdgehugAflfMeWexfodKc6fqcIcIbTjlffbaf1jmjnaMaljojpam#GiEjq#banQt.#.b#c",
"jrjii8iWiyimiminh1h1hsh#gyhagzgefLfBfCflfmeXfnfDfpfqfqfrbTbFbabbjsjtjujvjwjxjyjzjA#G#s#s#bQt.a.b",
"jBjrjii8iWiyimimidh1hKhsh#h#hagdfXfLfBfCfmfmfofndKfDc6cIcIckjlbabbaXjCjDjEjFjG#3am#S#T#T#4an.##I",
"jHjBjrjii8iWi9iyidininh1hKhsh#hagdfXhufBfCfleXeXfYdKfpfEcIckbTbFfsbaaXaYaFatcNa5#3au#G#G.R#sanQt",
"jIjHjBjrjJjKiWjLiyimidinhKhKh#iXhtgzgefLgAfkfleXeXfofYfpc6frfrjlbTbabbaXaYaFaMalaa#3am#S#G#T#ban"};
