/* XPM */
static char * ic_graphics_48_xpm[] = {
"48 48 310 2",
"  	c None",
". 	c #333366",
"+ 	c #D63C46",
"@ 	c #E8272D",
"# 	c #FF2222",
"$ 	c #FF2121",
"% 	c #912641",
"& 	c #FF1313",
"* 	c #FF0101",
"= 	c #FE0000",
"- 	c #941831",
"; 	c #FF0000",
"> 	c #971932",
", 	c #898284",
"' 	c #F4CB2C",
") 	c #706245",
"! 	c #C01323",
"~ 	c #38386A",
"{ 	c #867F82",
"] 	c #F3C820",
"^ 	c #EBBC06",
"/ 	c #2B2B56",
"( 	c #DC1C25",
"_ 	c #B4192C",
": 	c #404070",
"< 	c #F3C921",
"[ 	c #FECC00",
"} 	c #8C742F",
"| 	c #9E243D",
"1 	c #CD1420",
"2 	c #4C3D6A",
"3 	c #FFCD04",
"4 	c #DCB10C",
"5 	c #363351",
"6 	c #323264",
"7 	c #D40A13",
"8 	c #F20A0D",
"9 	c #6F3357",
"0 	c #7D7886",
"a 	c #FFCD06",
"b 	c #FBC900",
"c 	c #73623A",
"d 	c #3C2D5B",
"e 	c #FF0707",
"f 	c #5B2C55",
"g 	c #74718B",
"h 	c #DDB92E",
"i 	c #FDCA00",
"j 	c #BF9A17",
"k 	c #2A2A53",
"l 	c #3C2D5A",
"m 	c #C70D19",
"n 	c #FD0000",
"o 	c #E3060D",
"p 	c #6A6A8F",
"q 	c #D2AF32",
"r 	c #F5C400",
"s 	c #4C4446",
"t 	c #2E2E5C",
"u 	c #911830",
"v 	c #FB0000",
"w 	c #6F2243",
"x 	c #69698E",
"y 	c #BA9F3F",
"z 	c #FFCC00",
"A 	c #977D28",
"B 	c #55274F",
"C 	c #91815B",
"D 	c #FF0606",
"E 	c #A81224",
"F 	c #7F787A",
"G 	c #FFCF10",
"H 	c #FFCC01",
"I 	c #6C5E42",
"J 	c #FF1212",
"K 	c #E9C027",
"L 	c #BF9C20",
"M 	c #7F5A7A",
"N 	c #FF1010",
"O 	c #8B172E",
"P 	c #C6A738",
"Q 	c #F1C206",
"R 	c #403D60",
"S 	c #353568",
"T 	c #3D3D6E",
"U 	c #A83A51",
"V 	c #F40000",
"W 	c #611E3B",
"X 	c #9B8853",
"Y 	c #736347",
"Z 	c #343467",
"` 	c #4D4D7E",
" .	c #676795",
"..	c #6D6D9A",
"+.	c #686894",
"@.	c #50507C",
"#.	c #52527D",
"$.	c #53537E",
"%.	c #575781",
"&.	c #6B5F84",
"*.	c #F31518",
"=.	c #F10000",
"-.	c #F3C616",
";.	c #D2AF33",
">.	c #AFAFE1",
",.	c #CCCCFE",
"'.	c #CCCCFF",
").	c #CDCDFF",
"!.	c #C3C3F5",
"~.	c #A9A9DA",
"{.	c #9393C2",
"].	c #7E7EAB",
"^.	c #5F5F8B",
"/.	c #B2374B",
"(.	c #A21123",
"_.	c #DDB82D",
":.	c #F2C206",
"<.	c #B3AFD2",
"[.	c #A8A8DA",
"}.	c #7777A6",
"|.	c #4E4E7A",
"1.	c #945772",
"2.	c #41264B",
"3.	c #A48E49",
"4.	c #B6A689",
"5.	c #323265",
"6.	c #866382",
"7.	c #F31F21",
"8.	c #961429",
"9.	c #72696C",
"0.	c #C2C2F5",
"a.	c #A6A6D9",
"b.	c #AC8CB9",
"c.	c #AF80A9",
"d.	c #B9B9EC",
"e.	c #5E5E8E",
"f.	c #D5060C",
"g.	c #34274E",
"h.	c #616189",
"i.	c #D0AB29",
"j.	c #A65366",
"k.	c #BF4059",
"l.	c #CC0D1A",
"m.	c #D90A13",
"n.	c #E6060D",
"o.	c #C23349",
"p.	c #B95979",
"q.	c #3A3A6A",
"r.	c #EE0000",
"s.	c #492144",
"t.	c #CC4D1A",
"u.	c #895983",
"v.	c #7676A9",
"w.	c #6F6F9F",
"x.	c #681A34",
"y.	c #6B6984",
"z.	c #AF9336",
"A.	c #8F3050",
"B.	c #BF1020",
"C.	c #F20306",
"D.	c #9F304D",
"E.	c #8F709C",
"F.	c #7878A8",
"G.	c #72668A",
"H.	c #DD252D",
"I.	c #BB9E3E",
"J.	c #DCB316",
"K.	c #606093",
"L.	c #666699",
"M.	c #505083",
"N.	c #9686B6",
"O.	c #B37399",
"P.	c #8C4D73",
"Q.	c #B34360",
"R.	c #9F6086",
"S.	c #8C7CAC",
"T.	c #9C9CCF",
"U.	c #A7384E",
"V.	c #F50000",
"W.	c #6C1B36",
"X.	c #7C7266",
"Y.	c #666386",
"Z.	c #F3181B",
"`.	c #781E3C",
" +	c #DCB625",
".+	c #807366",
"++	c #7979AC",
"@+	c #636396",
"#+	c #6C6C9F",
"$+	c #F10306",
"%+	c #968043",
"&+	c #8080B3",
"*+	c #59598C",
"=+	c #AE0F1D",
"-+	c #B39326",
";+	c #404073",
">+	c #3D3D70",
",+	c #CF1926",
"'+	c #E10306",
")+	c #D9AF13",
"!+	c #8686B9",
"~+	c #9393C6",
"{+	c #3E2F5D",
"]+	c #D30A12",
"^+	c #F90000",
"/+	c #EC0000",
"(+	c #492244",
"_+	c #4C4659",
":+	c #8989BC",
"<+	c #382A54",
"[+	c #84162C",
"}+	c #661A33",
"|+	c #6D6B85",
"1+	c #E8BE1E",
"2+	c #595053",
"3+	c #8C8CBF",
"4+	c #AFAFE2",
"5+	c #827B7D",
"6+	c #7F6C40",
"7+	c #6D6D92",
"8+	c #974A64",
"9+	c #C8303E",
"0+	c #D22833",
"a+	c #C45C30",
"b+	c #7A683E",
"c+	c #313162",
"d+	c #4D4D80",
"e+	c #363669",
"f+	c #BC3244",
"g+	c #E5060D",
"h+	c #E3B60D",
"i+	c #76643B",
"j+	c #2C2C58",
"k+	c #333365",
"l+	c #535386",
"m+	c #39396C",
"n+	c #7C4565",
"o+	c #FF0909",
"p+	c #6E3A43",
"q+	c #565689",
"r+	c #BA2839",
"s+	c #901830",
"t+	c #313163",
"u+	c #464679",
"v+	c #7373A6",
"w+	c #D0222E",
"x+	c #9C162A",
"y+	c #785072",
"z+	c #9D3E56",
"A+	c #F31316",
"B+	c #3F3F72",
"C+	c #7E203F",
"D+	c #CD141F",
"E+	c #5E4169",
"F+	c #5E5E86",
"G+	c #784061",
"H+	c #801B34",
"I+	c #4B4B7B",
"J+	c #676799",
"K+	c #7878A9",
"L+	c #303060",
"M+	c #7C1F3F",
"N+	c #FF0404",
"O+	c #B71F30",
"P+	c #9E263D",
"Q+	c #E70C13",
"R+	c #E80306",
"S+	c #362851",
"T+	c #50507F",
"U+	c #68689A",
"V+	c #2E2E5D",
"W+	c #612448",
"X+	c #EE0306",
"Y+	c #E70306",
"Z+	c #5A2143",
"`+	c #4D4D7D",
" @	c #472A53",
".@	c #C70D18",
"+@	c #89172E",
"@@	c #5C5C8F",
"#@	c #9999CC",
"$@	c #C9C9FB",
"%@	c #525280",
"&@	c #2D2D5B",
"*@	c #67203F",
"=@	c #641F3D",
"-@	c #292953",
";@	c #3A3A6C",
">@	c #5E5E91",
",@	c #9F9FD2",
"'@	c #B6B6E9",
")@	c #5C5C8B",
"!@	c #40406F",
"~@	c #575788",
"{@	c #646496",
"]@	c #656598",
"^@	c #616194",
"/@	c #4C4C7D",
"(@	c #2F2F5F",
"_@	c #2D2D5A",
":@	c #282851",
"<@	c #393967",
"[@	c #40406E",
"}@	c #464675",
"|@	c #515180",
"1@	c #5D5D8C",
"2@	c #434371",
"3@	c #484876",
"4@	c #2C2C59",
"5@	c #292952",
"                                                                                                ",
"        . . . . . .                                                                             ",
"        . + @ # $ % .                                                                           ",
"        . & * = * - .                                               . . . .                     ",
"        . & ; ; = > .                                             . , ' ) .                     ",
"        . & = ; * ! ~ .                                         . { ] ^ / .                     ",
"        . ( = ; = * _ : .                                     . { < [ } .                       ",
"        . | = = ; = * 1 2 .                                 . { ] 3 4 5 .                       ",
"        . 6 7 = = ; = * 8 9 .                             . 0 < a b c .                         ",
"          . d 7 = = ; ; * e f .                         . g h a i j k .                         ",
"            . l m n = ; ; * o .                       . p q a [ r s .                           ",
"              . t u v = ; = * w .                   . x y a z b A .                             ",
"                . . B n ; ; = u .                   . C a [ [ 4 5 .                             ",
"                    . D ; ; = E .                 . F G H [ [ I .                               ",
"                    . J ; ; n E .               . g K 3 z [ L 6 .                               ",
"                  . M N ; ; v O .             . x P a z z Q R S T . . . . . . .                 ",
"                  . U D ; ; V W .             . X a [ z z Y Z S `  ...+.@.#.$.%.. . . .         ",
"                . &.*.* ; = =..             . F -.H z z ;.>.,.'.'.'.'.'.'.).!.~.{.].^.#.. .     ",
"                . /.D ; ; v (..           . x _.3 z z :.<.'.'.'.'.'.'.'.'.'.'.'.'.,.'.[.}.|.. . ",
"              . 1.N * ; = V 2..         . p 3.a z z z 4.'.'.'.'.'.'.'.'.'.'.'.'.'.'.'.'.'.[.5.. ",
"            . 6.7.D ; = v 8..           . 9.a z z z ;.0.'.0.a.a.a.b.c.a.a.a.d.'.'.'.'.'.'.,.e.. ",
"          . 6.7.D ; ; v f.g..         . h.i.H z z :.j.k.l.m.; ; ; ; ; ; ; ; n.l.o.p.b.0.'.>.q.. ",
"        . 6.7.D ; ; v r.s..           . X a z z z t.; ; ; ; ; ; ; ; ; ; ; ; ; ; ; ; ; m.u.v.w.. ",
"      . 6.7.D ; ; v r.x..           . y.-.H z z z.A.B.n.; ; ; ; ; ; ; ; ; ; ; ; C.l.D.E.d.,.F.. ",
"    . G.H.D ; ; v r.x..           . x I.3 z z J.K.L.L.M.N.O.P.Q.k.k.k.k.k.P.R.S.T.d.'.'.'.,.F.. ",
"    . U.D = ; = V.W..             . X.a [ z :.Y.L.L.L.K.d.'.'.'.'.'.'.'.'.'.'.'.'.'.'.'.'.,.F.. ",
"    . Z.* ; ; = `..             . h. +H z z .+L.L.L.L.L.++'.'.'.'.'.'.'.'.'.'.'.'.d.@+#+'.,.F.. ",
"    . & ; ; ; $+l .             . X a z z %+L.L.L.L.L.L.L.&+0.'.'.'.'.'.'.'.'.'.0.&+*+#+d.,.F.. ",
"    . & = ; ; v =+.           . y.-.H z -+;+L.L.L.L.L.L.L.L.#+'.'.'.'.'.'.'.'.&+>+. &+T.'.,.F.. ",
"    . ,+= = v '+g..         . p I.3 z )+R ;+L.L.L.L.L.L.L.L.L.!+'.'.'.'.'.d.M.. . ~+'.'.'.,.F.. ",
"    . {+]+^+/+(+.           . X.a [ :._+. ;+L.L.L.L.L.L.L.L.L.K.d.'.'.'.:+>+. >+a.'.'.'.'.,.F.. ",
"      . <+[+}+.           . |+1+H [ 2+. . ;+L.L.L.L.L.L.L.L.L.L.3+'.4+M.. . *+d.'.'.'.'.'.,.F.. ",
"        . . .     . . . . 5+_.3 [ 6+. . . ;+L.L.L.L.L.L.L.L.L.L.#+#+. . >+~+'.'.'.'.'.'.'.,.F.. ",
"                . 7+8+9+0+a+3 b b+c+6 . . ;+L.L.L.L.L.L.L.L.L.d+e+. . #+0.'.'.'.'.'.'.'.'.,.F.. ",
"              . x f+e * ; g+h+i+j+. c+k+Z ;+L.L.L.L.L.L.L.l+m+. . M.4+'.'.'.'.'.'.'.'.'.'.,.F.. ",
"              . n+o+* ; ; = p+/ .   . . . ;+L.L.L.L.K.d+m+. . m+q+!+'.'.'.'.'.'.'.'.'.'.'.,.F.. ",
"              . r+* ; ; ; = s+.     . t+6 . u+d+u+>+. . . m+l+L.L.v+'.'.'.'.'.'.'.'.'.'.'.,.F.. ",
". . . .       . w+= ; ; ; = x+.       . t+k+. . . . e+u+q+L.L.L.L.v+'.'.'.'.'.'.'.'.'.'.'.,.F.. ",
". y+z+|..   . h.A+; ; ; ; = x+.         . B+l+d+q+*+L.L.L.L.L.L.L.~+'.'.'.'.'.'.'.'.'.'.'.,.F.. ",
". 5.C+D+E+. F+G+D ; ; ; ; v H+.         . I+J+L.L.L.L.L.L.L.L.L.&+'.'.'.'.'.'.'.'.'.'.'.'.,.K+. ",
"  . L+M+N+O+P+Q+* ; ; ; = R+S+.         . T+U+L.L.L.L.L.L.L.L.L.++0.'.'.'.'.'.'.'.'.'.'.'.,.K+. ",
"    . V+W+X+= ; ; ; = v Y+Z+.           . `+J+L.L.L.L.L.L.L.L.L.L.@+3+0.'.'.'.'.'.'.'.'.'.,.K+. ",
"      . .  @.@n = v Y++@g.. .           . T @+L.L.L.L.L.L.L.L.L.L.L.L.@@++#@0.'.'.'.'.'.'.$@%@. ",
"          . &@*@O =@-@. .                 . ;@>@L.L.L.L.L.L.L.L.L.L.L.L.L.L.@@v+3+,@a.,.'@)@k . ",
"            . . . . .                     . . &@!@~@{@]@L.L.L.L.L.L.L.L.L.L.L.@+*+^@/@(@_@:@.   ",
"                                              . . . _@<@[@}@}@}@}@}@}@|@1@2@|@[@3@4@5@. . .     ",
"                                                    . . . . . . . . . . . . . . . . .           ",
"                                                                                                "};
