/* XPM */
static char * ic_sciences_48_xpm[] = {
"48 48 372 2",
"  	c None",
". 	c #333366",
"+ 	c #6D6D92",
"@ 	c #B49E52",
"# 	c #CFAF3C",
"$ 	c #CAAC3C",
"% 	c #978450",
"& 	c #BDBDD7",
"* 	c #BBBBDC",
"= 	c #9B9BC4",
"- 	c #656590",
"; 	c #B29947",
"> 	c #FFCD06",
", 	c #FFCC01",
"' 	c #FFCD03",
") 	c #63574C",
"! 	c #E1E1FF",
"~ 	c #D9D9FF",
"{ 	c #D7D7FF",
"] 	c #B9B9E1",
"^ 	c #9E9ECB",
"/ 	c #61618D",
"( 	c #D0AE2E",
"_ 	c #FFCC00",
": 	c #B19223",
"< 	c #D8D8FF",
"[ 	c #D0D0FF",
"} 	c #D2D2FF",
"| 	c #CCCCF7",
"1 	c #B1B1DD",
"2 	c #9595C4",
"3 	c #494976",
"4 	c #FDCA00",
"5 	c #AE8E22",
"6 	c #DEDEFF",
"7 	c #D3D3FF",
"8 	c #CCCCFF",
"9 	c #CACAFC",
"0 	c #C9C9FB",
"a 	c #CBCBFE",
"b 	c #B9B9E6",
"c 	c #A1A1D0",
"d 	c #595987",
"e 	c #76769E",
"f 	c #B9A989",
"g 	c #E7B906",
"h 	c #5D5141",
"i 	c #A59463",
"j 	c #C3A643",
"k 	c #B39B4A",
"l 	c #404070",
"m 	c #DADAFF",
"n 	c #C1C1F1",
"o 	c #B7B7E5",
"p 	c #B3B3E0",
"q 	c #B9B9E7",
"r 	c #C5C5F7",
"s 	c #C5C5F6",
"t 	c #A9A9D9",
"u 	c #8181B0",
"v 	c #494977",
"w 	c #6A6A8F",
"x 	c #D0D0FD",
"y 	c #CDCDFF",
"z 	c #A89777",
"A 	c #BEA34E",
"B 	c #BAA257",
"C 	c #5B5144",
"D 	c #97896B",
"E 	c #FFD012",
"F 	c #A1862B",
"G 	c #CECEFF",
"H 	c #C7C7F9",
"I 	c #9898C5",
"J 	c #7070A1",
"K 	c #2E2E5E",
"L 	c #5D5D89",
"M 	c #9C9CCA",
"N 	c #C6C6F7",
"O 	c #ABABDC",
"P 	c #8A8ABB",
"Q 	c #414171",
"R 	c #C3C3EF",
"S 	c #CACAFD",
"T 	c #C3C3F4",
"U 	c #9A864F",
"V 	c #B29122",
"W 	c #B8B8E7",
"X 	c #A3A3D4",
"Y 	c #313162",
"Z 	c #2E2E5C",
"` 	c #5E5E8A",
" .	c #B6B6E6",
"..	c #AFAFE0",
"+.	c #A5A5D5",
"@.	c #9999C0",
"#.	c #CFCFFF",
"$.	c #C8C8FA",
"%.	c #636395",
"&.	c #323265",
"*.	c #6A5F51",
"=.	c #9C8229",
"-.	c #BDBDEC",
";.	c #A4A4D6",
">.	c #9292C2",
",.	c #ACACDD",
"'.	c #A2A2D4",
").	c #565686",
"!.	c #7D7DA2",
"~.	c #D1D1FE",
"{.	c #9C9CCC",
"].	c #323264",
"^.	c #C9C9FC",
"/.	c #807670",
"(.	c #BEA559",
"_.	c #9E8D68",
":.	c #2E2E5B",
"<.	c #CDCDF7",
"[.	c #C1C1F2",
"}.	c #A0A0D1",
"|.	c #7373A4",
"1.	c #8888B8",
"2.	c #B7B7E7",
"3.	c #ACACDE",
"4.	c #CECEFB",
"5.	c #B8B8E8",
"6.	c #CBCBFD",
"7.	c #8C8CBF",
"8.	c #B0B0E1",
"9.	c #C1C1EB",
"0.	c #9E9ECE",
"a.	c #8D8DBE",
"b.	c #666695",
"c.	c #B0B0E2",
"d.	c #AAAADC",
"e.	c #4B4B7D",
"f.	c #C3C3EA",
"g.	c #444471",
"h.	c #CDCDFD",
"i.	c #C0C0EB",
"j.	c #9B9BCB",
"k.	c #A1A1D4",
"l.	c #8080AD",
"m.	c #9B9BC9",
"n.	c #A3A3D3",
"o.	c #9E9EC3",
"p.	c #D1D1FF",
"q.	c #C4C4F5",
"r.	c #6B6B98",
"s.	c #CECEFD",
"t.	c #B1B1E2",
"u.	c #C0C0EA",
"v.	c #BFBFF2",
"w.	c #A5A5D7",
"x.	c #9696C3",
"y.	c #B2B2E3",
"z.	c #BFBFEA",
"A.	c #B9B9EC",
"B.	c #A1A1D2",
"C.	c #8181B4",
"D.	c #B3B3E4",
"E.	c #BCBCE9",
"F.	c #B3B3E6",
"G.	c #38386A",
"H.	c #BBBBE2",
"I.	c #B9B9EA",
"J.	c #A6A6D9",
"K.	c #A6A6D8",
"L.	c #9797C5",
"M.	c #9B9BC1",
"N.	c #6D6D9B",
"O.	c #C2C2F3",
"P.	c #AFAFE2",
"Q.	c #A2A2D3",
"R.	c #9B9BC8",
"S.	c #707094",
"T.	c #AD9959",
"U.	c #C3A642",
"V.	c #BA9E40",
"W.	c #AAA3AE",
"X.	c #AAAADB",
"Y.	c #DCDCFA",
"Z.	c #D5D5FF",
"`.	c #A7A7DA",
" +	c #B4B4E6",
".+	c #A8A8DB",
"++	c #B5B5E8",
"@+	c #9C9CC8",
"#+	c #9B8C68",
"$+	c #E9C128",
"%+	c #C2A33D",
"&+	c #C4C4F6",
"*+	c #DCDCFF",
"=+	c #9C9CCF",
"-+	c #A4A4D7",
";+	c #9797CA",
">+	c #B0ACCA",
",+	c #F3C512",
"'+	c #FFCD04",
")+	c #A0852A",
"!+	c #C8C8FB",
"~+	c #DEDEFA",
"{+	c #D6D6FF",
"]+	c #9999CC",
"^+	c #A7A7D9",
"/+	c #7777AA",
"(+	c #B9A679",
"_+	c #D1A912",
":+	c #3D3D6E",
"<+	c #DFDFF9",
"[+	c #B6B6E9",
"}+	c #ABABDE",
"|+	c #6D6DA0",
"1+	c #B99723",
"2+	c #F6C500",
"3+	c #4C4C7A",
"4+	c #CCCCEC",
"5+	c #9F9FD2",
"6+	c #BCBCEF",
"7+	c #C6C6F6",
"8+	c #ADADDE",
"9+	c #C2C2F2",
"0+	c #CACAEB",
"a+	c #8D7739",
"b+	c #BE9A19",
"c+	c #C9C9F4",
"d+	c #D0D0F1",
"e+	c #C2C2F5",
"f+	c #69699C",
"g+	c #D6AD14",
"h+	c #F8C600",
"i+	c #6E5E3B",
"j+	c #CFCFEE",
"k+	c #BBBBEC",
"l+	c #ACACDF",
"m+	c #C6C6F9",
"n+	c #77718B",
"o+	c #BF9C20",
"p+	c #F3C200",
"q+	c #CCA512",
"r+	c #806C34",
"s+	c #C0C0DB",
"t+	c #DBDBFF",
"u+	c #AEAEE0",
"v+	c #B5B5E7",
"w+	c #72613D",
"x+	c #AEAECA",
"y+	c #DFDFFF",
"z+	c #D4D4FF",
"A+	c #CBCBFC",
"B+	c #C3C3F5",
"C+	c #48487A",
"D+	c #B6B6E7",
"E+	c #A3A3D6",
"F+	c #323263",
"G+	c #DADAF5",
"H+	c #C9C9F9",
"I+	c #A3A3D5",
"J+	c #7474A6",
"K+	c #9A9ACA",
"L+	c #9B9BCD",
"M+	c #BBBBDA",
"N+	c #C8C8F9",
"O+	c #9999CB",
"P+	c #B2B2E1",
"Q+	c #C2C2E5",
"R+	c #9696C8",
"S+	c #AFAFDE",
"T+	c #9999CA",
"U+	c #464677",
"V+	c #BCBCE2",
"W+	c #A6A6D6",
"X+	c #7272A4",
"Y+	c #A5A5D4",
"Z+	c #9090C0",
"`+	c #7070A0",
" @	c #9595C7",
".@	c #ADADDB",
"+@	c #9494C2",
"@@	c #5E5E8C",
"#@	c #C6C6F8",
"$@	c #ACACD8",
"%@	c #CECEFE",
"&@	c #9898CB",
"*@	c #9898C9",
"=@	c #B4B4E1",
"-@	c #9E9ECD",
";@	c #CFCFFD",
">@	c #6F6F9F",
",@	c #CBCBFB",
"'@	c #9797C9",
")@	c #ACACDB",
"!@	c #8E8EBA",
"~@	c #63638A",
"{@	c #343467",
"]@	c #BFBFF0",
"^@	c #A6A6D7",
"/@	c #B5B5E3",
"(@	c #9797C3",
"_@	c #8282B2",
":@	c #69698E",
"<@	c #B09845",
"[@	c #CDA81F",
"}@	c #C9A62A",
"|@	c #9D8438",
"1@	c #C1C1F3",
"2@	c #A8A8DA",
"3@	c #BCBCEB",
"4@	c #434371",
"5@	c #897438",
"6@	c #AFAFDF",
"7@	c #B1B1E4",
"8@	c #BEBEEE",
"9@	c #AEAEDA",
"0@	c #9797C4",
"a@	c #7979A9",
"b@	c #D0AD2D",
"c@	c #B39222",
"d@	c #B0B0DE",
"e@	c #8F8FBA",
"f@	c #2D2D59",
"g@	c #CDAA2C",
"h@	c #AF8F21",
"i@	c #A3A3D0",
"j@	c #BABAEA",
"k@	c #9A9ACC",
"l@	c #A9A9D4",
"m@	c #9191BC",
"n@	c #7B7BAA",
"o@	c #2C2C58",
"p@	c #9E863A",
"q@	c #FECB00",
"r@	c #5E5141",
"s@	c #7E7EAA",
"t@	c #ADADDA",
"u@	c #9696C6",
"v@	c #9393C3",
"w@	c #9E9ED1",
"x@	c #C0C0F0",
"y@	c #B8B8E6",
"z@	c #AEAED9",
"A@	c #8E8EB8",
"B@	c #8383B0",
"C@	c #5D5D8A",
"D@	c #313161",
"E@	c #846F35",
"F@	c #AE8E21",
"G@	c #AB8B20",
"H@	c #5D5040",
"I@	c #7B7BA4",
"J@	c #9494BE",
"K@	c #9595C2",
"L@	c #8E8EBD",
"M@	c #8F8FBE",
"N@	c #BFBFEF",
"O@	c #A8A8D3",
"P@	c #8585AD",
"Q@	c #7E7EA9",
"R@	c #696998",
"S@	c #494975",
"T@	c #7676A0",
"U@	c #8181AA",
"V@	c #8383AB",
"W@	c #9292BB",
"X@	c #A1A1CA",
"Y@	c #9191B9",
"Z@	c #8080A8",
"`@	c #7F7FA6",
" #	c #7E7EA7",
".#	c #7777A2",
"+#	c #646490",
"@#	c #3F3F6B",
"                                                                                  . . . . . .   ",
"                            . . . .                                             . + @ # $ % .   ",
"                          . & * = - . .                                         . ; > , , ' ) . ",
"                          . ! ~ { ] ^ / . .                                     . ( , _ _ , : . ",
"                          . < [ [ } | 1 2 3 .                                   . ( _ _ _ 4 5 . ",
"      . . . . .         . 6 7 8 9 0 a [ b c d . .                             . e f _ _ 4 g h . ",
"      . i j k l .       . m [ 0 n o p q r s t u v .                         . w x y z A B C .   ",
"    . D E , ' F .       . < G H q I J K L M N O P Q .                       . R y a . S T .     ",
"    . U > _ _ V .       . < G H W X Y Z . . `  ...+.l .                   . @.#.$.%.&.S T .     ",
"    . *._ _ 4 =..       . { G $.-.;.Y .     . . >.,.'.)..               . !.~.$.{.. ].^.s .     ",
"      . /.(._.:..       . <.y 9 [.}.|..         . 1.2.3.)..             . 4.8 5..   . 6.s .     ",
"      . 7.6.8..         . 9.y a s 0.a..           . b.c.d.e..         . f.G [.g..   . h.s .     ",
"        . y 8..         . i.9 8 $.j.k..             . l.m.n..       . o.p.q.r..     . s.s .     ",
"        . #.t..         . u.v.8 9 n w.]..             . . . .     . !.~.$.x..       . s.s .     ",
"        . [ y..         . z.A.8 a s B.C..                         . 4.8 5..         . s.s .     ",
"        . [ D..       . 6 E.F.8 8 $.0.k.G..                     . H.G [.g..         . s.s .     ",
"        . [ T .       . m W F.8 8 S I.J.K.L.. .         . . . . M.p.$.N..           . s.s .     ",
"        . [ O..       . < y.P.8 8 8 $.Q.J.y s.R.. .   . S.T.U.V.W.y X..             . s.s .     ",
"        . [ O..     . Y.Z.`.J.8 8 8 a  +.+++8 y s.@+. #+$+> , , , %+Y .             . s.s .     ",
"        . [ &+.     . *+[ =+J.8 8 8 y a -+;+7.S 8 y >+,+'+_ _ _ _ _ )+.             . s.s .     ",
"        . [ !+.   . ~+{+q.]+F.8 8 8 8 y y ^+/+. 7.S (+_ _ _ _ _ _ _ _+.             . s.s .     ",
"        . [ 6.:+. <+m [ [+]+F.8 8 8 8 y G q.}+|+. . 1+_ _ _ _ _ _ _ 2+.             . s.s .     ",
"        . [ S 3+4+~ p.y 5+]+6+8 8 8 8 8 y G 7+8+|+. 1+_ _ _ _ _ _ _ 2+.             . s.s .     ",
"        . [ 9+0+< p.y [+]+=+^.8 8 8 8 8 8 y #.7+8+|+a+_ _ _ _ _ _ 4 b+.             . s.s .     ",
"        . c+d+~ p.y A.]+5+e+8 8 8 8 8 8 8 8 y #.7+8+f+g+_ _ _ _ _ h+i+.             . s.s .     ",
"        . j+~ p.k+J.l+6+8 8 8 8 8 8 8 8 8 8 m+H #.7+8+n+o+4 h+p+q+r+.               . s.s .     ",
"      . s+t+} u+P.^.8 8 8 8 8 8 8 8 8 8 8 8 F.]+v+#.7+}+|+].w+. . . .               . s.s .     ",
"    . x+y+z+u+l+8 8 8 8 8 8 8 8 8 8 8 8 8 8 6+]+]+w.A+B+.+C+.                       . s.s .     ",
"    . ! Z.D+]+m+8 8 8 8 8 8 8 8 8 8 8 8 8 8 m+]+]+]+-+9 l+E+F+.                     . s.s .     ",
"  . G+~ H+]+]+8 8 8 8 8 8 8 8 8 8 8 8 8 8 8 8 5+]+]+]+E+$.I+J+.                     . s.s .     ",
"  . 6 } ^+]+J.8 8 8 8 8 8 8 8 8 8 8 8 8 8 8 8 P.]+]+]+]+c.K+L+.                     . s.s .     ",
". M+{ N+]+]+J.8 8 8 8 8 8 8 8 8 8 8 8 8 8 8 8 v.]+]+]+]+O+P+Q..                     . s.s .     ",
". Q+7 c.]+]+E+8 8 8 8 8 8 8 8 8 8 8 8 8 8 8 8 8 =+]+]+]+R+S+T+U+.                   . s.s .     ",
". V+[ E+]+]+]+8 8 8 8 8 8 8 8 8 8 8 8 8 8 8 8 8 l+]+]+]+R+W+>.X+.                   . s.s .     ",
". H.[ ]+]+]+]+m+8 8 8 8 8 8 8 8 8 8 8 8 8 8 8 8 A.]+]+]+R+Y+Z+`+.                   . s.s .     ",
". ] #.]+]+]+]+6+8 8 8 8 8 8 8 8 8 8 8 8 8 8 8 8 ^.]+]+]+ @.@+@@@.                   . s.#@.     ",
". $@%@=+]+]+]+l+8 8 8 8 8 8 8 8 8 8 8 8 8 8 8 8 8 E+]+&@*@=@-@.                     . ;@9 .     ",
". >@,@P.]+]+]+=+8 8 8 8 8 8 8 8 8 8 8 8 8 8 8 8 8 l+]+'@)@!@}..                   . ~@h.8 {@.   ",
"  . ]@!+E+]+]+]+A.8 8 8 8 8 8 8 8 8 8 8 8 8 8 8 8 F.&@^@/@(@_@.                 . :@<@[@}@|@. . ",
"    . ^.1@]+]+]+5+8 8 8 8 8 8 8 8 8 8 8 8 8 8 8 8 v.2@3@@+B.4@.                 . ; > , , , 5@. ",
"    . 6@q.7@]+]+]+F.8 8 8 8 8 8 8 8 8 8 8 8 8 8 a r 8@9@0@a@.                   . b@, _ _ _ c@. ",
"      . d@O.;.&@]+]+A.8 8 8 8 8 8 8 8 8 8 8 8 6.#@3@9@e@Z+f@.                   . g@_ _ _ 4 h@. ",
"        . i@j@k@;+&@]+F.^.8 8 8 8 8 8 8 8 6.$.O.o l@m@n@o@.                     . p@q@_ 4 g r@. ",
"          . s@t@u@v@ @'@w@e+8 8 8 8 S $.r x@y@z@A@B@C@. .                       . D@E@F@G@H@.   ",
"            . . I@J@K@L@M@Z+5.[.n N@3@o 1 O@P@Q@R@o@.                             . . . . .     ",
"                . . S@T@U@V@W@X@Y@Z@`@ #.#+#@#. . .                                             ",
"                    . . . . . . . . . . . . .                                                   ",
"                                                                                                "};
