/* XPM */
static char * other_sciences48_xpm[] = {
"48 48 80 1",
" 	c None",
".	c #333366",
"+	c #474775",
"@	c #414170",
"#	c #38386A",
"$	c #3B3B6C",
"%	c #404073",
"&	c #7373A6",
"*	c #8080B3",
"=	c #666699",
"-	c #39396C",
";	c #323264",
">	c #8C7639",
",	c #998033",
"'	c #595053",
")	c #9393C6",
"!	c #9999CC",
"~	c #4D4659",
"{	c #FFCC00",
"]	c #E6B90D",
"^	c #66594D",
"/	c #4D4D80",
"(	c #BF9C20",
"_	c #403D60",
":	c #B39326",
"<	c #F2C206",
"[	c #736346",
"}	c #806C40",
"|	c #8C8CBF",
"1	c #6C6C9F",
"2	c #CCA61A",
"3	c #A6892D",
"4	c #C6A326",
"5	c #737093",
"6	c #998C80",
"7	c #736C80",
"8	c #D9AF13",
"9	c #867C80",
"0	c #9F8F73",
"a	c #FFC600",
"b	c #FFB900",
"c	c #FFB300",
"d	c #FFA900",
"e	c #FFA600",
"f	c #FF9C00",
"g	c #FF9900",
"h	c #FFBF00",
"i	c #59598C",
"j	c #606093",
"k	c #60596C",
"l	c #8C89AC",
"m	c #605659",
"n	c #80798C",
"o	c #464679",
"p	c #FFC900",
"q	c #FFB600",
"r	c #FFA300",
"s	c #FFAF00",
"t	c #535386",
"u	c #7979AC",
"v	c #FFC200",
"w	c #FF9F00",
"x	c #FFAC00",
"y	c #4C4863",
"z	c #524C60",
"A	c #6A5E54",
"B	c #FFBC00",
"C	c #58515D",
"D	c #6C698C",
"E	c #8686B9",
"F	c #313163",
"G	c #383760",
"H	c #564D51",
"I	c #6E5F45",
"J	c #80673C",
"K	c #927433",
"L	c #927733",
"M	c #927A33",
"N	c #806C3C",
"O	c #313161",
"................................................",
".+@@@@@@@@@@@@@@@@@@@@@@@@@@@@@@@@@@@@@@@@@@@@#.",
".$.......................................%&*=-;.",
".$............>,'........................)!!!&;.",
".$...........~{{{]^...................../!!!!!;.",
".$...........>{{{{{(_.................../!!!!);.",
".$...........:{{{{{{<[..................}|!!!1;.",
".$.-==%......2{{{{{{{{3................^{4567.;.",
".$.*!!|......8{{{8_.':{2_............._<{[^{,.;.",
".$.!!!!......{{{{^....~28'............2{3.^{,.;.",
".$.*!!*......{{{{,......><'..........,{8..^{,.;.",
".$.-90-......{a{{:.......']}........^{<~..^{,.;.",
".$..2{......^{b{{]........'<}......_]{[...^{,.;.",
".$..2{......^{c{{{~........']_.....({3....^{,.;.",
".$..2{......>{d{{{}.........^.....>{8_....^{,.;.",
".$..2{......,{e{{{(..............'{<'.....^{,.;.",
".$..2{......2{f{{{{_............_]{}......^{,.;.",
".$..2{......<{g{{{{:}...........({:.......^{,.;.",
".$..2{.....'{hg{{{{8<]}.....%ijk<]_.......^{,.;.",
".$..2{.....3{hg{{{{{({{]}_.1!!!!lm........^{,.;.",
".$..2{...._<{cg{{{{{8':{{<n!!!!!!*........^{,.;.",
".$..2{....:{{dg{{{{{{:.~:8)!!!!!!!o.......^{,.;.",
".$..,{^..:{{pgg{{{{{{{>.._!!!!!!!!=.......^{,.;.",
".$..,{^.}{{{bge{{{{{{{{}..!!!!!!!!j.......^{,.;.",
".$..,{^}{{{pfgq{{{{{{{{{}.|!!!!!!!o.......^{,.;.",
".$..,{3{{{prgs{{{{{{{{{{{}t!!!!!!u........^{,.;.",
".$..,2{{psrsa{{{{{{{{{{v{{,j)!!!&-........^{,.;.",
".$..}<{vwh{{{{{{{{{{{{{gep{>.//-..........^{,.;.",
".$._]{vwv{{{{{{{{{{{{{{fgfv{}.............^{,.;.",
".$.2{pwx{{{{{{{{{{{{{{{dggfb<~............^{,.;.",
".$}{{xgb{{{{{{{{{{{{{{{qgggfv:............^{,.;.",
".$]{hggh{{{{{{{{{{{{{{{aggggw{_...........^{,.;.",
".y{{dggh{{{{{{{{{{{{{{{{wggggb[...........^{,.;.",
".z{agggh{{{{{{{{{{{{{{{{sgggge,...........^{,.;.",
".A{bgggB{{{{{{{{{{{{{{{{hggggw3...........^{,.;.",
".A{cgggc{{{{{{{{{{{{{{{{{fgggf2...........^{,.;.",
".C{eggge{{{{{{{{{{{{{{{{{dggge3...........^{,.;.",
".z{cgggf{{{{{{{{{{{{{{{{{qgggb,...........^{,.;.",
".$<hggggB{{{{{{{{{{{{{{{{hggwp^...........^{,.;.",
".$:{sggge{{{{{{{{{{{{{{{{{ggh]...........-D67.;.",
".$^{prgggh{{{{{{{{{{{{{{{{gb{,...........E!!!1;.",
".$.3{vggge{{{{{{{{{{{{{{{{v{8.........../!!!!);.",
".$._8{cgggx{{{{{{{{{{{{{{{{<'.........../!!!!!;.",
".$.._8{egggdp{{{{{{{{{{{{{]'............-)!!!&;.",
".$..._3pegggfB{{{{{{{{{{{:_..............o&*=-;.",
".$.....~:brgggq{{{{{{{{:^.....................;.",
".;FFFFFFFGHIJKLMMMMNIHGFFFFFFFFFFFFFFFFFFFFFFFO.",
"................................................"};
