/* XPM */
static char * ic_physics_48_xpm[] = {
"48 48 227 2",
"  	c None",
". 	c #333366",
"+ 	c #7E7987",
"@ 	c #8D8069",
"# 	c #93825D",
"$ 	c #6A6474",
"% 	c #958560",
"& 	c #FFD013",
"* 	c #FFCD07",
"= 	c #FFCD04",
"- 	c #F2C40F",
"; 	c #716246",
"> 	c #F3C719",
", 	c #FFCC01",
"' 	c #FFCC00",
") 	c #DDB20D",
"! 	c #F5C400",
"~ 	c #B89A35",
"{ 	c #FDCA00",
"] 	c #9C8129",
"^ 	c #6F6F93",
"/ 	c #625F7D",
"( 	c #9B8853",
"_ 	c #C8A93E",
": 	c #918059",
"< 	c #4E4E7A",
"[ 	c #4C4C79",
"} 	c #414171",
"| 	c #BAA468",
"1 	c #C6A119",
"2 	c #C29E19",
"3 	c #75643B",
"4 	c #2C2C58",
"5 	c #69698E",
"6 	c #6D6467",
"7 	c #E7BB13",
"8 	c #D9B016",
"9 	c #454264",
"0 	c #5E5E8D",
"a 	c #C7C7F9",
"b 	c #6B6B9A",
"c 	c #DAB119",
"d 	c #D9AF14",
"e 	c #323263",
"f 	c #8B8BBA",
"g 	c #C5C5F6",
"h 	c #7F7056",
"i 	c #62564A",
"j 	c #B6B6E5",
"k 	c #A8A8DA",
"l 	c #A18942",
"m 	c #947C31",
"n 	c #CFCFFF",
"o 	c #8181B1",
"p 	c #958048",
"q 	c #7C683E",
"r 	c #9494BC",
"s 	c #CCCCFF",
"t 	c #484876",
"u 	c #595465",
"v 	c #F0C006",
"w 	c #3C3A5B",
"x 	c #A9A9D5",
"y 	c #B3B3E5",
"z 	c #444473",
"A 	c #806D41",
"B 	c #7A673D",
"C 	c #2D2D59",
"D 	c #D0D0FF",
"E 	c #8A8ABA",
"F 	c #575786",
"G 	c #8989BC",
"H 	c #7C6C50",
"I 	c #E6B90D",
"J 	c #E0B40D",
"K 	c #6B5C41",
"L 	c #8C8CB4",
"M 	c #595986",
"N 	c #616189",
"O 	c #ACACDC",
"P 	c #CBCBFE",
"Q 	c #4F4F82",
"R 	c #60596C",
"S 	c #797386",
"T 	c #2E2E5D",
"U 	c #A1A1CD",
"V 	c #BCBCEE",
"W 	c #9292BE",
"X 	c #7C7CAD",
"Y 	c #313161",
"Z 	c #313162",
"` 	c #7E7EB0",
" .	c #C4C4F5",
"..	c #C6C6F6",
"+.	c #9393C3",
"@.	c #7979A0",
"#.	c #9E9ECF",
"$.	c #2D2D5A",
"%.	c #7373A5",
"&.	c #C6C6F7",
"*.	c #8585AD",
"=.	c #62628F",
"-.	c #6D6D93",
";.	c #C0C0EE",
">.	c #BEBEF0",
",.	c #3F3F6C",
"'.	c #9999C5",
").	c #C6C6F8",
"!.	c #6C6776",
"~.	c #82745A",
"{.	c #686585",
"].	c #C3C3F5",
"^.	c #5F5F90",
"/.	c #606092",
"(.	c #BEBEED",
"_.	c #9D9DCD",
":.	c #68688E",
"<.	c #B09644",
"[.	c #FFCD06",
"}.	c #F2C206",
"|.	c #6C6366",
"1.	c #7C7CAE",
"2.	c #77779F",
"3.	c #6A6A98",
"4.	c #8F7E57",
"5.	c #9191BD",
"6.	c #D0AD2B",
"7.	c #A0A0D1",
"8.	c #ADADDC",
"9.	c #8484B5",
"0.	c #3B395A",
"a.	c #B3B3E4",
"b.	c #9292BB",
"c.	c #4E4E7F",
"d.	c #3B3B6C",
"e.	c #CBA51A",
"f.	c #8989B8",
"g.	c #857E80",
"h.	c #A99352",
"i.	c #B29A54",
"j.	c #B8A88C",
"k.	c #333365",
"l.	c #303060",
"m.	c #79663C",
"n.	c #907930",
"o.	c #464152",
"p.	c #8787B7",
"q.	c #6D6D91",
"r.	c #BEA448",
"s.	c #FFD012",
"t.	c #D9B117",
"u.	c #3F3C5E",
"v.	c #676799",
"w.	c #908059",
"x.	c #AE8E25",
"y.	c #D0AE2E",
"z.	c #EABB06",
"A.	c #7373A4",
"B.	c #7B7BA3",
"C.	c #CFAC28",
"D.	c #F6C500",
"E.	c #717197",
"F.	c #A3A3CE",
"G.	c #CAA72C",
"H.	c #DEB30D",
"I.	c #8484B6",
"J.	c #707094",
"K.	c #9595C0",
"L.	c #C9C9FB",
"M.	c #8F8FC1",
"N.	c #6F6255",
"O.	c #FECB00",
"P.	c #846F36",
"Q.	c #B5B5E4",
"R.	c #A1A1D3",
"S.	c #8383A9",
"T.	c #C8C8FA",
"U.	c #A3A3D3",
"V.	c #50507D",
"W.	c #2F2F5E",
"X.	c #6C5D42",
"Y.	c #FAC800",
"Z.	c #FBC900",
"`.	c #EABC06",
" +	c #8F7630",
".+	c #A4A4D7",
"++	c #78789D",
"@+	c #ABABD6",
"#+	c #CECEFF",
"$+	c #BABAEB",
"%+	c #696996",
"&+	c #51494C",
"*+	c #5D5245",
"=+	c #9B9BCA",
"-+	c #C2C2F5",
";+	c #3D3D6D",
">+	c #6B6B90",
",+	c #C5C5F5",
"'+	c #7F7FAE",
")+	c #353561",
"!+	c #616188",
"~+	c #96876D",
"{+	c #BFA65A",
"]+	c #76674B",
"^+	c #424271",
"/+	c #6B6B98",
"(+	c #BDBDED",
"_+	c #9A9AC9",
":+	c #454572",
"<+	c #E2B91E",
"[+	c #B8B8EB",
"}+	c #B9B9EA",
"|+	c #61618E",
"1+	c #7C7577",
"2+	c #FFCF10",
"3+	c #8B7B60",
"4+	c #373764",
"5+	c #776C60",
"6+	c #937A31",
"7+	c #5F5659",
"8+	c #FCCA00",
"9+	c #605447",
"0+	c #A1862B",
"a+	c #F7C500",
"b+	c #A68924",
"c+	c #464051",
"d+	c #433D4D",
"                                                                                                ",
"                                                                                                ",
"                                                                                  . . . .       ",
"                                                                              . . + @ # $ . .   ",
"                                                                              . % & * = - ; .   ",
"                                                                              . > , ' ' , ) .   ",
"                                                                              . & ' ' ' ' ! .   ",
"                                                                              . & ' ' ' ' ! .   ",
"                      . . . . . . . .                                         . ~ ' ' ' { ] .   ",
"                    . ^ / ( _ _ : < [ .                                       . } | 1 2 3 4 .   ",
"                  . 5 6 7 , ' ' , 8 9 . .                                     . 0 a b . . .     ",
"                  . < c ' ' ' ' ' ' d e .                                     . f g .           ",
"                  . h , ' ' ' ' ' ' , i .                                     . j k .           ",
"                  . l ' ' ' ' ' ' ' ' m .                                     . n o .           ",
"                  . p ' ' ' ' ' ' ' ' q .                                   . r s t .           ",
"                  . u ' ' ' ' ' ' ' v w .                                   . x y .             ",
"                  . z A ' ' ' ' ' { B C .                                   . D E .             ",
"                  . F G H I ' { J K 4 .                                   . L s M .             ",
"                . N O P Q . R S T . .                                     . U V .               ",
"                . W s X Y Z `  ..                                         . ..+..               ",
"              . @.n #.$.. . %.&..                                       . *.s =..               ",
"      . . . . -.;.>.,..     . s .                                       . '.)..                 ",
"    . ^ !.( ~.{.].^..       . n /..                                     . (._..                 ",
"  . :.<.[.' ' }.|.Z .       . D 1..                                   . 2.s 3..                 ",
"  . 4.= ' ' ' ' I Z .       . D X .                                   . 5.)..                   ",
"  . 6.' ' ' ' ' ' i .       . (.7..                                   . j k .                   ",
"  . 6.' ' ' ' ' ' i .       . 8.7..                                   . D 9..                   ",
"  . l ' ' ' ' ' v 0..       . 8.a..                               . . b.n c..                   ",
"  . d.e.' ' ' { B C .       . f.g .                           . . g.h.i.j.k..                   ",
"  . Y l.m.n.n.o.4 .         . p.g .                         . q.r.s.[., , t.u..                 ",
"    . . . . . . .           . v.)..                         . w.[.' ' ' ' , x..                 ",
"                              . s .                         . y., ' ' ' ' ' z..                 ",
"                              . n A..                   . . B.C.' ' ' ' ' ' D..                 ",
"                              . D 1..               . . E.F.D G.' ' ' ' ' ' H..                 ",
"                              . D I..             . J.K...L.M.N.O.' ' ' ' { P..                 ",
"                              . Q.R..         . . S.;.T.U.V.. W.X.H.Y.Z.`. +4 .                 ",
"                              . 8..+.     . . ++@+#+$+%+. .   . . . &+*+C . .                   ",
"                              . =+-+;+. . >+K.,+a '+)+.             . . .                       ",
"                            . !+~+{+]+^+/+(+a _+:+. .                                           ",
"                            . _ [., , <+[+}+|+. .                                               ",
"                          . 1+2+' ' ' ' 3+4+.                                                   ",
"                          . 5+[.' ' ' ' 6+.                                                     ",
"                          . 7+, ' ' ' 8+9+.                                                     ",
"                            . 0+Y.Z.a+b+4 .                                                     ",
"                            . . c+*+d+. .                                                       ",
"                                . . .                                                           ",
"                                                                                                ",
"                                                                                                "};
